<?xml version="1.0" encoding="UTF-8"?>
<svg id="Layer_2" data-name="Layer 2" xmlns="http://www.w3.org/2000/svg" viewBox="0 0 11.4581 13.92595">
  <defs>
    <style>
      .cls-1 {
        fill: #fff;
      }

      .cls-2 {
        fill: #4285f4;
      }

      .cls-3 {
        fill: #3ddc84;
      }

      .cls-4 {
        fill: #073042;
      }

      .cls-5 {
        fill: #3870b2;
      }
    </style>
  </defs>
  <g id="Skills_Modal" data-name="Skills Modal">
    <g>
      <path class="cls-4" d="m4.29865,1.76181H1.14535C.51693,1.76181.00074,2.27801.00074,2.91764c-.02244.61719.47131,1.13339,1.08851,1.15584h3.24307s-.03367-2.31167-.03367-2.31167Z"/>
      <path class="cls-2" d="m11.44687,12.04089H1.14535C.50571,12.04089.00074,11.52469.00074,10.88505V2.90642C.00074,3.54606.51693,4.06226,1.14535,4.07348h8.62949s1.68326-.14588,1.68326,1.12217v6.84524h-.01122Z"/>
      <path class="cls-5" d="m6.64398,7.95619c.46009-.34787.54986-.99873.20199-1.4476-.19077-.24688-.48253-.40398-.79674-.4152h.03367c.05611-.01122.12344-.01122.17955,0v-.63964c0-.07855-.03367-.14588-.101-.17955-.101-.05611-.22443-.02244-.28054.07855-.02244.03367-.03367.06733-.02244.11222v.65086c-.56109.08977-.95384.61719-.86407,1.1895v.01122c.04489.26932.19077.5162.4152.6733l-1.89647,4.06226h1.23439l.87529-1.8628c.101-.22443.37032-.32543.60597-.21321.08977.04489.16833.12344.21321.21321l.90896,1.8628h1.25683l-1.9638-4.09592Zm-.63964-.17955c-.35909,0-.63964-.29176-.63964-.65086s.29176-.63964.65086-.62842c.16833,0,.31421.06733.43765.17955.2581.24688.2581.65086.01122.90896-.11222.11222-.28054.19077-.46009.19077Z"/>
      <path class="cls-1" d="m3.61412,2.32289h4.42135v.80796H3.61412v-.80796Z"/>
      <path class="cls-4" d="m5.6677,6.48614c.34787,0,.63964.29176.62842.65086,0,.34787-.29176.63964-.65086.62842-.34787,0-.62842-.29176-.62842-.63964,0-.16833.06733-.32543.19077-.44887s.29176-.19077.46009-.19077Zm.24688-.37032v-.6733c0-.07855-.03367-.14588-.101-.17955-.101-.05611-.22443-.02244-.28054.07855-.02244.03367-.03367.06733-.02244.11222v.65086c-.56109.08977-.95384.61719-.86407,1.1895v.01122c.04489.26932.19077.5162.4152.6733l-2.39022,5.12832c-.08977.17955-.07855.40398.04489.57231.17955.2581.52742.32543.78552.14588.08977-.05611.1571-.14588.20199-.23566l1.59348-3.4114c.101-.22443.37032-.32543.60597-.21321.08977.04489.16833.12344.21321.21321l1.62715,3.37773c.13466.28054.47131.39276.75185.2581s.39276-.47131.2581-.75185l-2.45755-5.10588c.44887-.35909.52742-1.02117.16833-1.47004-.13466-.17955-.32543-.30299-.54986-.37032"/>
      <path class="cls-3" d="m7.38462,3.04108c-.16833,0-.30299-.12344-.30299-.29176,0-.07855.03367-.16833.08977-.22443.12344-.11222.30299-.11222.42643,0,.05611.05611.08977.13466.08977.21321-.01122.16833-.13466.29176-.30299.30299m-3.32163-.01122c-.16833,0-.30299-.13466-.30299-.29176,0-.07855.03367-.1571.08977-.21321.101-.12344.29176-.14588.4152-.04489h.01122c.12344.11222.13466.30299.02244.42642l-.03367.04489c-.05611.05611-.13466.08977-.21321.08977m3.42262-1.81792l.59475-1.0324c.03367-.05611.01122-.12344-.03367-.16833-.05611-.02244-.11222-.01122-.14588.03367l-.61719,1.06606c-.98751-.43765-2.10968-.43765-3.08597,0L3.58046.06733c-.02244-.03367-.06733-.06733-.11222-.06733s-.08977.02244-.11222.06733c-.02244.03367-.02244.08977,0,.12344l.60597,1.0324c-1.05484.57231-1.73936,1.64959-1.84036,2.83909h7.20433c-.08977-1.20072-.78552-2.26678-1.84036-2.83909"/>
      <path class="cls-4" d="m10.39203,6.29538h-.47131c-.02244.01122-.04489.03367-.04489.06733v7.46243c0,.03367.02244.05611.05611.05611h.49376c.57231,0,1.0324-.47131,1.0324-1.0324v-7.59709c0,.57231-.46009,1.0324-1.0324,1.0324h-.03367v.01122Z"/>
    </g>
  </g>
</svg>