<?xml version="1.0" encoding="UTF-8"?>
<svg id="Layer_2" data-name="Layer 2" xmlns="http://www.w3.org/2000/svg" viewBox="0 0 17.59215 14.1979">
  <defs>
    <style>
      .cls-1 {
        fill: #e87500;
      }

      .cls-2 {
        fill: #fff;
      }

      .cls-3 {
        fill: #235785;
      }
    </style>
  </defs>
  <g id="Skills_Modal" data-name="Skills Modal">
    <g>
      <ellipse class="cls-2" cx="11.49941" cy="8.19437" rx="3.72983" ry="3.36182"/>
      <path class="cls-3" d="m9.11662,7.92795c.03298-.58301.31982-1.09772.75385-1.46152.42524-.35762.99616-.57628,1.62301-.57628.62356,0,1.19434.21853,1.61903.57628.43472.3638.71977.87851.75385,1.46152.03298.59786-.20932,1.15586-.63291,1.56914-.43403.41919-1.04824.68403-1.73997.68403-.69228,0-1.30924-.2632-1.74052-.68403-.42524-.41314-.66699-.96812-.63304-1.56639l-.0033-.00275Z"/>
      <path class="cls-1" d="m5.39382,9.16077c.00385.22815.07752.67208.18692,1.0176.23117.73337.62356,1.41191,1.16685,2.00647.55828.61366,1.24712,1.10707,2.04096,1.45822.83467.36696,1.74066.55484,2.68074.55484.94008-.00124,1.84608-.19241,2.6806-.56377.79385-.35487,1.48296-.84772,2.04096-1.46468.54618-.60116.93733-1.27914,1.16699-2.01307.11501-.36454.18854-.74089.21921-1.12191.02859-.36971.01649-.74286-.03615-1.116-.10304-.71899-.35674-1.40811-.74451-2.02227-.35377-.57037-.81309-1.06652-1.35927-1.48612l.00165-.00055L9.94744.21681c-.00495-.00385-.00935-.0077-.01429-.011-.35995-.27515-.96812-.27405-1.36202.0011-.4005.27914-.44668.74011-.09016,1.03024l-.00165.0011,2.29275,1.85322-6.98038.00701h-.00935c-.57683.00055-1.13236.37644-1.24107.85391-.1127.48392.27969.88785.88126.88785l-.0011.0022,3.53712-.0066L.62951,9.64483c-.0077.00605-.01649.01209-.02419.01814-.5958.45272-.78807,1.20809-.41287,1.6828.3818.48406,1.19104.48736,1.79316.00275l3.44394-2.80512s-.05058.37906-.04618.60432l.01044.01306Zm8.87304,1.26705c-.71028.71853-1.70644,1.12837-2.77997,1.12837-1.07628.00165-2.07244-.40105-2.78286-1.11903-.34717-.35171-.60157-.7522-.75976-1.18074-.15464-.42168-.21429-.8723-.17468-1.31969.03761-.43652.16776-.86002.3818-1.24231.20712-.37301.49341-.71193.84387-.99877.69173-.55773,1.56955-.86311,2.48764-.86311.92208-.0011,1.80003.29879,2.49176.85707.35047.28519.63565.62246.84387.99547.21449.38226.3445.80608.38126,1.24286.03902.4472-.02061.89751-.17469,1.31914-.15764.43183-.41259.83233-.76045,1.18403l.0022-.0033Z"/>
    </g>
  </g>
</svg>