<?xml version="1.0" encoding="UTF-8"?>
<svg id="Layer_2" data-name="Layer 2" xmlns="http://www.w3.org/2000/svg" xmlns:xlink="http://www.w3.org/1999/xlink" viewBox="0 0 17.40964 13.87318">
  <defs>
    <style>
      .cls-1 {
        fill: url(#linear-gradient);
      }

      .cls-2 {
        fill: url(#linear-gradient-2);
      }
    </style>
    <linearGradient id="linear-gradient" x1="110.22358" y1="-3890.80956" x2="172.14987" y2="-3939.96736" gradientTransform="translate(-25.32442 -954.39861) scale(.24566 -.24566)" gradientUnits="userSpaceOnUse">
      <stop offset="0" stop-color="#9013fe"/>
      <stop offset="1" stop-color="#6610f2"/>
    </linearGradient>
    <linearGradient id="linear-gradient-2" x1="127.92144" y1="-3899.30747" x2="141.76278" y2="-3922.71733" gradientTransform="translate(-24.94042 -954.03429) scale(.24566 -.24566)" gradientUnits="userSpaceOnUse">
      <stop offset="0" stop-color="#fff"/>
      <stop offset="1" stop-color="#f1e5fc"/>
    </linearGradient>
  </defs>
  <g id="Skills_Modal" data-name="Skills Modal">
    <g>
      <path class="cls-1" d="m1.92062,1.81308c-.0328-.94329.70203-1.81308,1.69543-1.81308h10.17892c.99339,0,1.72823.86979,1.69543,1.81308-.03156.90605.00941,2.0798.30479,3.03679.29634.96004.79602,1.5667,1.61445,1.64477v.88405c-.81844.07807-1.31811.68473-1.61445,1.64477-.29537.95699-.33634,2.13074-.30479,3.03679.0328.94329-.70203,1.81294-1.69543,1.81294H3.61605c-.99339,0-1.72823-.86979-1.69543-1.81294.03156-.90605-.00941-2.0798-.30492-3.03679-.2962-.9599-.79726-1.5667-1.6157-1.64477v-.88405c.81844-.07793,1.3195-.68473,1.6157-1.64477.29551-.95699.33634-2.13074.30492-3.03679Z"/>
      <path class="cls-2" d="m9.13539,10.67489c1.60822,0,2.57733-.78743,2.57733-2.08623,0-.98176-.69148-1.69252-1.71822-1.80503v-.04091c.75435-.12272,1.3463-.82324,1.3463-1.60557,0-1.11471-.88006-1.84083-2.22112-1.84083h-3.01739v7.37857h3.0331Zm-1.85967-6.44282h1.5611c.84864,0,1.33056.37838,1.33056,1.06357,0,.73123-.5605,1.14028-1.57677,1.14028h-1.31488v-2.20385Zm0,5.50707v-2.42884h1.55059c1.11056,0,1.6868.40905,1.6868,1.20675s-.5605,1.22209-1.6187,1.22209h-1.6187Z"/>
    </g>
  </g>
</svg>