<?xml version="1.0" encoding="UTF-8"?>
<svg id="Layer_2" data-name="Layer 2" xmlns="http://www.w3.org/2000/svg" viewBox="0 0 12.74985 14.45979">
  <defs>
    <style>
      .cls-1 {
        fill: #ebebeb;
      }

      .cls-2 {
        fill: #fff;
      }

      .cls-3 {
        fill: #1572b6;
      }

      .cls-4 {
        fill: #33a9dc;
      }
    </style>
  </defs>
  <g id="Skills_Modal" data-name="Skills Modal">
    <g>
      <path class="cls-3" d="m1.16027,13.01424L0,0h12.74985l-1.16143,13.01228-5.22123,1.44751s-5.20692-1.44555-5.20692-1.44555Z"/>
      <path class="cls-4" d="m6.37504,13.35341l4.21906-1.16974.99259-11.11965h-5.21165s0,12.28939,0,12.28939Z"/>
      <path class="cls-2" d="m6.37504,5.77909h2.11213l.14587-1.63447h-2.258v-1.59615h4.00245l-.03831.42826-.39237,4.39851h-3.57176s0-1.59615,0-1.59615Z"/>
      <path class="cls-1" d="m6.3845,9.92441l-.00704.00208-1.77757-.47997-.11367-1.27302h-1.60204l.22354,2.50623,3.26951.90742.00727-.00208v-1.66067Z"/>
      <path class="cls-2" d="m8.35145,7.30774l-.19226,2.13752-1.78022.48054v1.66067l3.27217-.90685.024-.2697.27766-3.10218h-1.60135Z"/>
      <path class="cls-1" d="m6.38046,2.54847v1.59615h-3.85542l-.03197-.35868-.0727-.80921-.0382-.42826s3.99829,0,3.99829,0Zm-.00542,3.23085v1.59615h-1.75518l-.03197-.35868-.07282-.80921-.03808-.42826h1.89805Z"/>
    </g>
  </g>
</svg>