<?xml version="1.0" encoding="UTF-8"?>
<svg id="Layer_2" data-name="Layer 2" xmlns="http://www.w3.org/2000/svg" viewBox="0 0 13.90038 13.90049">
  <defs>
    <style>
      .cls-1 {
        fill: #fff;
      }
    </style>
  </defs>
  <g id="Skills_Modal" data-name="Skills Modal">
    <g>
      <path d="m0,0h13.90038v13.90049H0V0Z"/>
      <path class="cls-1" d="m5.94035,1.45274h1.77338v8.20857c-.90974.17285-1.57766.2419-2.30303.2419-2.16492-.00008-3.29343-.97871-3.29343-2.8558,0-1.80795,1.19765-2.98247,3.05152-2.98247.28791,0,.50668.02305.77154.0921V1.45274Zm0,4.13182c-.20725-.06905-.38001-.09202-.59878-.09202-.89813,0-1.41642.55269-1.41642,1.51996,0,.94431.49524,1.46243,1.40498,1.46243.19564,0,.35688-.01152.61022-.04592v-2.84445Z"/>
      <path class="cls-1" d="m10.53471,4.19128v4.11098c0,1.41642-.10371,2.09578-.41458,2.68304-.28791.56438-.66792.92126-1.4509,1.3128l-1.64671-.78298c.78307-.36857,1.16299-.6908,1.40481-1.18621.25334-.5066.33409-1.09385.33409-2.63694v-3.50067h1.7733Zm-1.77338-2.72913h1.77338v1.81948h-1.77338v-1.81948Z"/>
    </g>
  </g>
</svg>