<?xml version="1.0" encoding="UTF-8"?>
<svg id="Layer_2" data-name="Layer 2" xmlns="http://www.w3.org/2000/svg" viewBox="0 0 13.99438 13.9942">
  <defs>
    <style>
      .cls-1 {
        fill: #f34f29;
      }
    </style>
  </defs>
  <g id="Skills_Modal" data-name="Skills Modal">
    <path class="cls-1" d="m13.73038,6.37379L7.62026.2639c-.35165-.35187-.92235-.35187-1.27455,0l-1.26867,1.26889,1.60945,1.60945c.37415-.12627.80295-.04157,1.10105.25653.29965.29999.38368.73245.25431,1.10782l1.55114,1.55125c.37526-.12937.80839-.04578,1.10793.25442.41905.41872.41905,1.09751,0,1.51644-.41867.41888-1.09764.41904-1.51652.00037l-.00037-.00037c-.30593-.30612-.39796-.76609-.23336-1.16635l-1.44649-1.44649-.00022,3.80702c.10495.05168.20077.12013.28369.20265.41883.41872.41883,1.09728,0,1.51689-.41894.41872-1.09795.41872-1.51644,0-.41883-.41949-.41883-1.09806,0-1.51689.10034-.1005.21969-.18002.35109-.23391v-3.84227c-.1315-.05374-.25089-.13332-.35109-.23402-.31728-.31706-.39366-.78267-.23092-1.17245l-1.58673-1.58673L.26398,6.34553c-.35197.35208-.35197.9228,0,1.27488l6.11023,6.10989c.35187.35187.92235.35187,1.27477,0l6.08151-6.08151c.35189-.35217.35184-.92288-.00011-1.27499Z"/>
  </g>
</svg>