<?xml version="1.0" encoding="UTF-8"?>
<svg id="Layer_2" data-name="Layer 2" xmlns="http://www.w3.org/2000/svg" viewBox="0 0 13.19084 14.95969">
  <defs>
    <style>
      .cls-1 {
        fill: #ebebeb;
      }

      .cls-2 {
        fill: #fff;
      }

      .cls-3 {
        fill: #f16529;
      }

      .cls-4 {
        fill: #e44d26;
      }
    </style>
  </defs>
  <g id="Skills_Modal" data-name="Skills Modal">
    <g>
      <path class="cls-4" d="m1.20047,13.46429L0,0h13.19084l-1.20179,13.46225-5.40168,1.49743-5.38692-1.49539Z"/>
      <path class="cls-3" d="m6.59542,13.81513l4.36487-1.21018,1.02696-11.50407h-5.39184v12.71426Z"/>
      <path class="cls-1" d="m6.59542,6.0946h-2.1852l-.15094-1.69109h2.33614v-1.65126H2.45457l.0396.44299.40579,4.55073h3.69547v-1.65138Zm0,4.28868l-.00732.00204-1.83903-.49674-.11747-1.31685h-1.65785l.23133,2.59279,3.38278.93902.00756-.00204v-1.71821Z"/>
      <path class="cls-2" d="m6.58966,6.0946v1.65138h2.03341l-.19162,2.14164-1.84179.4971v1.71809l3.38542-.93829.02484-.27897.38804-4.34747.0402-.44347h-3.83849Zm0-3.34235v1.65126h3.98883l.03312-.371.07535-.83727.03948-.44299h-4.13678Z"/>
    </g>
  </g>
</svg>