<?xml version="1.0" encoding="UTF-8"?>
<svg id="Layer_2" data-name="Layer 2" xmlns="http://www.w3.org/2000/svg" viewBox="0 0 14.17211 14.17022">
  <defs>
    <style>
      .cls-1 {
        fill: #ff9b00;
      }

      .cls-2 {
        fill: #340000;
        fill-rule: evenodd;
      }
    </style>
  </defs>
  <g id="Skills_Modal" data-name="Skills Modal">
    <g>
      <path class="cls-1" d="m14.01755.15919v13.76496c-2.56385,0-5.12769.00018-7.69154-.00006-2.05569-.00019-4.11138-.00088-6.16708-.00134-.00146-.03668-.00419-.07337-.00419-.11005-.00019-4.50545-.00018-9.01091-.00018-13.51636,0-.04433,0-.08865,0-.14178h.18085c4.50998,0,9.01996-.00002,13.52994.00019.05073,0,.10146.00289.15219.00444Z"/>
      <path class="cls-2" d="m5.28259,7.64739h1.72865c-.29757-1.01215-.59065-1.94783-.879-2.89881-.2798.95435-.56366,1.88666-.84965,2.89881ZM13.84732,0H.21259C-.03325,0,.00195.05353.00195.29071v13.65216c0,.23696-.0352.22729.19332.22729h13.66937c.22841,0,.30747.00967.30747-.2274V.30803c0-.2545-.07895-.30803-.32479-.30803Zm-5.26478,10.68385c-.1841,0-.36887-.01496-.55207-.0018-.13214.0099-.17634-.04566-.21154-.16037-.17027-.55455-.35122-1.10887-.5216-1.66331-.0343-.11156-.08333-.15227-.20423-.15081-.62113.0072-1.24259.00652-1.86383-.00079-.13079-.00157-.19096.03329-.2283.16307-.15812.55151-.33109,1.09852-.49089,1.64947-.03464.11943-.08727.16116-.21413.1579-.37315-.00933-.74686-.0036-1.15543-.0036.10785-.34245.20569-.65914.30691-.97448.62011-1.93434,1.24236-3.86868,1.85798-5.80426.04296-.13473.10268-.17623.24101-.17319.43703.00967.87439.00247,1.31164,0,.08176-.00056.13754.00427.16746.09717.73156,2.26228,1.46571,4.5385,2.19919,6.80055.00315.01023.00112.06444.00281.06444h-.64497Zm2.32818,0h-1.34954v-5.06077h1.34954v5.06077Zm-.71413-5.74353c-.41217-.00056-.70727-.2843-.71008-.68264-.0027-.39721.30443-.69265.72043-.6931.41926-.00045.71469.28531.71796.694.00292.39868-.29994.68242-.7283.68174Z"/>
    </g>
  </g>
</svg>