<?xml version="1.0" encoding="UTF-8"?>
<svg id="Layer_2" data-name="Layer 2" xmlns="http://www.w3.org/2000/svg" viewBox="0 0 14.45968 14.45979">
  <defs>
    <style>
      .cls-1 {
        fill: #f0db4f;
      }

      .cls-2 {
        fill: #323330;
      }
    </style>
  </defs>
  <g id="Skills_Modal" data-name="Skills Modal">
    <g>
      <path class="cls-1" d="m0,0h14.45968v14.45979H0V0Z"/>
      <path class="cls-2" d="m13.2763,11.01109c-.10592-.65966-.53607-1.21375-1.81023-1.73042-.44262-.20341-.93607-.34906-1.08311-.6845-.05221-.19521-.05914-.30517-.0261-.42333.09483-.38348.55259-.50304.9154-.39307.23367.07831.45487.25839.58828.54566.62397-.40405.6227-.40139,1.05839-.67907-.15952-.2473-.24465-.36142-.34906-.46723-.37528-.41918-.88664-.63506-1.70443-.61854l-.42599.0551c-.4082.10315-.79723.31741-1.02536.60468-.6845.77667-.48929,2.13596.34363,2.69536.82056.61589,2.026.756,2.17997,1.33192.14981.70506-.51817.9333-1.1821.85221-.48929-.10176-.76143-.35045-1.05562-.80266q-.5415.31337-1.09824.63356c.13202.28865.27075.41929.49206.66937,1.04742,1.06244,3.66852,1.01023,4.13863-.59787.01906-.05521.14566-.42345.04389-.99117Zm-5.41556-4.36537h-1.35248l-.00554,3.49664c0,.74364.03846,1.42536-.08247,1.63431-.19786.41098-.7106.36004-.94427.28034-.23783-.11689-.35877-.28311-.49888-.51805-.03846-.06746-.06734-.11967-.07704-.12371l-1.09963.67341c.18285.37528.45221.70101.79723.91262.51539.30933,1.20809.40416,1.93255.23783.4715-.13734.87832-.42183,1.09131-.85487.30794-.56772.24187-1.25487.2391-2.01491.00693-1.23997.00012-2.47971.00012-3.72361Z"/>
    </g>
  </g>
</svg>