<?xml version="1.0" encoding="UTF-8"?>
<svg id="Layer_2" data-name="Layer 2" xmlns="http://www.w3.org/2000/svg" viewBox="0 0 6.28908 13.9942">
  <defs>
    <style>
      .cls-1 {
        fill: #57ae47;
      }

      .cls-1, .cls-2, .cls-3, .cls-4, .cls-5, .cls-6, .cls-7, .cls-8, .cls-9, .cls-10, .cls-11, .cls-12, .cls-13, .cls-14 {
        fill-rule: evenodd;
      }

      .cls-2 {
        fill: #60b24f;
      }

      .cls-3 {
        fill: #4aa73c;
      }

      .cls-4 {
        fill: #4faa41;
      }

      .cls-5 {
        fill: #46a037;
      }

      .cls-6 {
        fill: #45a538;
      }

      .cls-7 {
        fill: #439934;
      }

      .cls-8 {
        fill: #409433;
      }

      .cls-9 {
        fill: #dbdac7;
      }

      .cls-10 {
        fill: #cecdb7;
      }

      .cls-11 {
        fill: #a9aa88;
      }

      .cls-12 {
        fill: #c2c1a7;
      }

      .cls-13 {
        fill: #b6b598;
      }

      .cls-14 {
        fill: #ebe9dc;
      }
    </style>
  </defs>
  <g id="Skills_Modal" data-name="Skills Modal">
    <g>
      <path class="cls-7" d="m5.9024,4.56626c.18414.53269.31677,1.07651.36037,1.64018.05415.69928.02937,1.39363-.11806,2.08143-.00402.01893-.01251.03671-.01882.05507-.04624.00011-.09339-.00562-.13859.00138-.38194.06-.76353.12219-1.14512.18403-.39444.0639-.78946.12529-1.18321.19355-.13951.02409-.31218-.0047-.36851.18827-.00161.00528-.01767.0062-.02696.00918l.01905-1.15315-.01939-2.78243.1838-.03155c.30059-.04922.60119-.09913.90201-.14697.35899-.05702.71833-.11244,1.07754-.16808.15844-.02467.31711-.04727.4759-.0709Z"/>
      <path class="cls-6" d="m2.88397,12.28094c-.19389-.1667-.39456-.32606-.58042-.50137-1.0001-.94331-1.73162-2.05355-2.09187-3.39211-.09924-.3684-.16544-.74276-.18667-1.12344-.01492-.2664-.03648-.53522-.01767-.80024.05014-.7049.15202-1.40303.35876-2.08201l.01136-.01583c.02008.02673.04899.05037.0592.08054.20181.5943.40213,1.18906.60142,1.78417.6262,1.8701,1.25159,3.74066,1.87882,5.6103.01228.03648.04406.06643.06689.09936,0,0-.09982.34063-.09981.34063Z"/>
      <path class="cls-5" d="m5.9024,4.56626c-.15879.02363-.31757.04624-.47602.07067-.35922.05564-.71855.11106-1.07754.16808-.30082.04784-.60141.09775-.90201.14697l-.1838.03155-.00138-.11989c-.00608-.09855-.01652-.19699-.01767-.29554-.00792-.62849-.01285-1.25698-.02065-1.88547-.00482-.39341-.01205-.7867-.02008-1.18-.00493-.24438-.01021-.48886-.02122-.7329-.00597-.13114-.02708-.26158-.03568-.39272-.00482-.07538.00184-.15133.00333-.22705.09373.18162.1854.36461.28178.54485.15225.28499.39479.49495.61312.72406.86311.90545,1.47589,1.95821,1.85782,3.14739Z"/>
      <path class="cls-8" d="m3.26338,8.91923c.00929-.00298.02547-.0039.02696-.00918.05633-.19298.229-.16418.36851-.18827.39375-.06815.78877-.12964,1.18321-.19355.38159-.06184.76318-.12402,1.14512-.18403.0452-.00711.09236-.00126.13859-.00138-.07136.2547-.12758.51491-.2181.76261-.1028.28097-.22717.55518-.35922.82399-.19769.40095-.44237.77696-.72888,1.12011-.22017.2648-.46557.50952-.71156.75125-.13595.13366-.29623.24254-.44538.36266l-.03866-.02639-.13928-.11909-.1441-.31585c-.09843-.36845-.15213-.74742-.15993-1.12871l.00264-.06436.01962-.27834c.00654-.095.01526-.18988.01927-.2851.0148-.34213.02765-.68425.04119-1.02638h0Z"/>
      <path class="cls-4" d="m3.26338,8.91923c-.01354.34213-.02639.68425-.04096,1.02649-.00402.09523-.01274.19011-.01927.2851l-.08777.03316c-.19493-.57388-.38997-1.14168-.58076-1.71097-.31551-.94182-.62723-1.88513-.94228-2.82718-.25446-.76038-.51069-1.52016-.76869-2.27934-.01205-.03557-.0467-.06333-.07079-.09477l.56172-1.0328c.01927.0335.04474.06482.05691.10085.26016.76893.519,1.53831.77649,2.30814.33455,1.00159.66704,2.00399,1.00136,3.0057.01331.04004.03534.07698.05633.12184l.07687-.08949s-.01916,1.15327-.01916,1.15327Z"/>
      <path class="cls-3" d="m.75297,3.35184c.02409.03144.05863.0592.07079.09477.258.75918.51423,1.51897.76869,2.27934.31505.94205.62677,1.88536.94228,2.82718.19068.56918.38572,1.13709.58076,1.71097l.08777-.03316-.01962.27834-.01778.06413c-.03052.30472-.05622.61013-.09339.91417-.0187.15236-.0584.30197-.08857.45284-.02272-.03293-.05461-.06287-.06689-.09936-.62723-1.86976-1.25262-3.7402-1.87882-5.6103-.19922-.59514-.39969-1.18987-.60142-1.78417-.01021-.03017-.03901-.05381-.0592-.08054,0,0,.3754-1.01421.3754-1.01421Z"/>
      <path class="cls-1" d="m3.28243,7.76608l-.07687.08949c-.021-.04486-.04302-.08192-.05633-.12184-.33421-1.00171-.66681-2.00411-1.00136-3.0057-.25751-.76982-.51633-1.53921-.77649-2.30814-.01205-.03603-.03752-.06746-.05691-.10085l.69469-.91383c.02191.02926.05312.0553.06448.08823.19286.56459.384,1.12986.57399,1.69548.17749.52822.35234,1.05724.53189,1.58477.01205.03534.05392.06035.08192.09018l.00138.11989c.00665.92725.01319,1.85484.01962,2.78232Z"/>
      <path class="cls-2" d="m3.26166,4.86364c-.02799-.02983-.06987-.05484-.08192-.09018-.17955-.52753-.3544-1.05655-.53189-1.58477-.18999-.56562-.38113-1.13078-.57399-1.69548-.01136-.03293-.04256-.05897-.06448-.08823.2259-.2212.44481-.45032.67978-.6613.20892-.18747.37689-.38848.38458-.68471.00034-.01228.00677-.02455.01664-.05897l.05954.14984c-.00149.07584-.00826.15167-.00333.22705.0086.13114.02972.26158.03568.39272.01101.24403.01629.48852.02122.7329.00792.39329.01514.78659.02008,1.18.00769.62849.01274,1.25698.02065,1.88547.00092.09878.01124.19711.01744.29566Z"/>
      <path class="cls-11" d="m2.98367,11.9403c.03017-.15087.06987-.30059.08857-.45284.03729-.30392.06287-.60945.09339-.91417l.00757-.00115.00757.00126c.00781.38129.0615.76026.15993,1.12871-.02019.02662-.04876.05037-.05943.08043-.08341.2352-.162.47223-.24587.70743-.01147.03212-.04337.05714-.06586.08536l-.0857-.2944s.09982-.34063.09982-.34063Z"/>
      <path class="cls-13" d="m2.96967,12.57545c.02249-.02822.0545-.05323.06586-.08536.08387-.2352.16257-.47211.24587-.70743.01067-.03006.03912-.05381.05943-.08043l.14399.31597c-.02845.04038-.06769.07675-.08352.12173l-.27581.80988c-.01136.03247-.05014.05541-.07607.08284,0,0-.07974-.4572-.07974-.4572Z"/>
      <path class="cls-12" d="m3.04941,13.03253c.02604-.02731.06471-.05037.07607-.08284l.27581-.80988c.01572-.04486.05507-.08134.08352-.12173l.1394.11898c-.06735.06654-.10475.14341-.08226.24059l-.04234.13859c-.01927.02375-.04715.0444-.05668.07159-.09626.2757-.18816.55288-.2851.82858-.01228.03499-.04635.06241-.07044.09316-.01251-.15913-.02524-.31792-.03798-.47705h0Z"/>
      <path class="cls-10" d="m3.0875,13.50958c.02398-.03086.05805-.05828.07044-.09316.09695-.27558.18885-.55277.2851-.82858.00952-.02708.03729-.04784.05668-.07159l-.0584.63618c-.0156.01801-.03821.03373-.04566.05473-.06597.18517-.12815.37173-.19435.5569-.01365.03821-.03981.07194-.06023.10762-.01813-.02375-.0506-.04669-.05209-.07148-.00585-.09649-.00184-.19366-.00149-.29061Z"/>
      <path class="cls-9" d="m3.14096,13.87167c.02042-.0358.04658-.06953.06023-.10762.06631-.18506.12838-.37161.19435-.5569.00746-.021.03017-.0366.04566-.05473l.00138.41762-.13974.35842s-.16188-.05679-.16188-.05679Z"/>
      <path class="cls-14" d="m3.30285,13.92858l.13974-.35842.0288.42404-.16854-.06563Z"/>
      <path class="cls-10" d="m3.54194,12.37777c-.02249-.09718.0148-.17416.08226-.24059l.03866.02639-.12093.2142Z"/>
      <path class="cls-4" d="m3.18077,10.57352l-.00757-.00126-.00757.00115.01778-.06413s-.00264.06425-.00264.06425Z"/>
    </g>
  </g>
</svg>