<?xml version="1.0" encoding="UTF-8"?>
<svg id="Layer_2" data-name="Layer 2" xmlns="http://www.w3.org/2000/svg" viewBox="0 0 10.50841 10.30982">
  <defs>
    <style>
      .cls-1 {
        fill: #fff;
      }
    </style>
  </defs>
  <g id="Skills_Modal" data-name="Skills Modal">
    <path class="cls-1" d="m9.67724,7.97913c-.5733-.01562-1.0111.03776-1.38542.19555-.10634.04486-.27608.04611-.29346.17935.05847.06123.06758.15278.11402.22813.08938.14451.24025.33848.3749.44006.14719.1111.2988.2298.45652.32595.28051.17099.59368.26873.86375.44006.15922.10108.31735.2283.47264.34224.07685.05639.12839.14401.22822.17935v-.01621c-.05246-.06683-.06599-.15855-.11411-.2283l-.21193-.21193c-.20717-.275-.47022-.51658-.74981-.71714-.22295-.16005-.7219-.37624-.81488-.63561l-.01629-.01629c.15805-.01788.34308-.07501.48901-.11419.24509-.06566.46412-.0487.71714-.11402l.34224-.09782v-.06516c-.12789-.13123-.21911-.30498-.35853-.42377-.36505-.31075-.76334-.62125-1.17349-.8802-.22755-.14351-.50864-.23682-.74981-.35853-.08111-.04102-.22362-.06232-.27717-.13048-.12672-.16139-.19564-.36605-.29329-.55408-.20458-.39403-.40548-.82432-.58675-1.2389-.12363-.28268-.20441-.56135-.35861-.81496-.74012-1.21685-1.5367-1.9512-2.77075-2.6731-.26263-.15354-.57881-.2141-.91295-.29346-.17918-.01078-.35853-.02172-.53779-.03266-.10951-.04561-.22329-.17952-.32595-.24451C1.39588.19021.34719-.37156.04446.36705c-.19121.46621.28577.92097.45627,1.15729.11979.16557.27307.35143.35861.53779.0563.12254.06599.24542.11419.37499.11837.31927.22153.66661.37482.96157.07744.14936.16281.30657.26079.44006.05998.08195.16298.11803.17918.24451-.10058.14084-.10634.35953-.16289.53796-.25478.80318-.15863,1.80159.21193,2.39602.11361.18261.3815.57397.74972.42377.32211-.13115.25019-.5378.34232-.89649.0208-.08128.00802-.14109.04887-.19555v.01629l.29346.58675c.21719.34976.60245.71522.92907.96182.16932.12789.30265.34892.52159.42377v-.01637h-.01629c-.04244-.06608-.10885-.09348-.16298-.1466-.12756-.12505-.2694-.28051-.37482-.42377-.29705-.40322-.55951-.84453-.79867-1.30389-.11428-.21944-.2136-.46136-.30983-.68465-.03709-.08604-.03659-.21627-.11394-.26079-.1055.16356-.26079.29588-.34232.48901-.1304.30874-.14719.68532-.19555,1.07576-.02857.01019-.01587.00317-.03266.01621-.22705-.05471-.30674-.28836-.39119-.48893-.21335-.50705-.25303-1.32335-.06524-1.90701.04862-.15111.26815-.62659.17926-.76618-.04244-.13917-.18244-.2197-.26071-.32603-.09698-.13148-.19372-.30457-.26096-.45643-.17459-.3952-.25612-.83902-.43998-1.23865-.08796-.19104-.23657-.38443-.35861-.55417-.13508-.1882-.28644-.32679-.39119-.55425-.03726-.08086-.08779-.21034-.03266-.29346.01754-.05605.04244-.07944.09782-.09774.09456-.07293.35786.02422.45627.06507.26138.10859.47957.21201.70102.3587.10617.0705.21376.20675.34224.24451h.14669c.22947.05271.4865.01629.70094.08145.37891.11511.71848.29429,1.02681.48901.93943.59326,1.70761,1.43763,2.23304,2.44497.08454.16222.12112.31693.19555.48901.15019.34692.3394.70386.48884,1.04318.14919.33848.29454.68005.50538.96173.11085.14802.53888.22746.73352.30975.13633.05756.35978.1177.48901.19547.24668.14886.48575.32603.71723.48909.11553.08145.47113.26029.48884.40757ZM2.39145,1.76909c-.11954-.00226-.20407.01303-.29346.03249v.01629h.01629c.05705.11712.15771.19263.22813.29346.0543.11419.10868.22822.16306.34224l.01621-.01612c.10099-.07125.14719-.18495.1466-.3587-.04043-.04252-.04636-.09581-.08145-.1466-.04645-.06775-.13658-.10626-.19539-.16306Z"/>
  </g>
</svg>