<?xml version="1.0" encoding="UTF-8"?>
<svg id="Layer_2" data-name="Layer 2" xmlns="http://www.w3.org/2000/svg" viewBox="0 0 14.20362 14.17578">
  <defs>
    <style>
      .cls-1 {
        fill: #0078d0;
      }

      .cls-2 {
        fill: #242939;
        fill-rule: evenodd;
      }
    </style>
  </defs>
  <g id="Skills_Modal" data-name="Skills Modal">
    <g>
      <path class="cls-1" d="m14.00671.18916v13.77098c-2.55401,0-5.10802.00018-7.66203-.00006-2.0478-.00019-4.09561-.00088-6.14342-.00134-.00145-.0367-.00417-.0734-.00417-.1101-.00019-4.50742-.00018-9.01485-.00018-13.52227,0-.04435,0-.08869,0-.14184h.18016c4.49268,0,8.98535-.00002,13.47803.00019.05054,0,.10107.0029.15161.00444Z"/>
      <path class="cls-2" d="m5.55136,4.57853c-.41506-.10427-.83069-.07079-1.26931-.00248,0,.76711-.00158,1.51359.00417,2.26018.00023.03821.0576.10472.0948.1098.4783.06459.95401.06978,1.40131-.14824.46274-.22545.69846-.69688.63736-1.25037-.05546-.504-.35385-.83959-.86834-.96889Zm8.65226,2.51911V.25758c0-.23628.00259-.25758-.22681-.25758H.27945c-.22309,0-.27945.02142-.27945.24642v13.69736c0,.22748.02841.22782.24901.22782,4.57165.00011,9.15694-.00101,13.72859.00417.17732.00023.22489-.04701.22444-.22083-.00609-2.28577.00158-4.57176.00158-6.85731Zm-7.96395.65833c-.62642.22343-1.27968.23594-1.95604.18352v2.54414h-1.24v-.15804c0-2.12998-.00981-4.25973-.01578-6.3896-.00068-.17687.02739-.26232.22669-.28261.93924-.09604,1.87319-.20404,2.80713.01499,1.00395.23526,1.5828.899,1.62677,1.81603.05445,1.13561-.4446,1.91343-1.44877,2.27156Zm4.99494,1.43772c-.0478.65055-.41461,1.07767-1.01624,1.28419-.8051.27641-1.6058.21227-2.39263-.10044-.12885-.05129-.15376-.11622-.11126-.24755.07744-.23966.13415-.48608.19389-.7086.33266.09762.64897.21948.97667.27708.23143.04069.48157.0168.71683-.02007.21091-.03314.36264-.17631.39725-.40266.03517-.23008-.03416-.42938-.23729-.5518-.16143-.09717-.33931-.16672-.50987-.24823-.27427-.1311-.56657-.23391-.81953-.39793-.99549-.64559-.6714-1.84681-.0071-2.29918.35543-.24191.74873-.34923,1.16977-.364.49521-.01736.97205.06809,1.44043.29568l-.24744.87803c-.19615-.06944-.37876-.15962-.57153-.19547-.22872-.04261-.46861-.0664-.69947-.04757-.30955.02536-.49081.23898-.49081.50389,0,.15692.05952.28971.1904.3658.1878.10923.3871.1993.5846.29072.21373.09886.43941.17484.64514.28768.54898.30098.83474.76654.78819,1.40041Z"/>
    </g>
  </g>
</svg>