<?xml version="1.0" encoding="UTF-8"?>
<svg id="Layer_2" data-name="Layer 2" xmlns="http://www.w3.org/2000/svg" xmlns:xlink="http://www.w3.org/1999/xlink" viewBox="0 0 13.03693 14.48709">
  <defs>
    <style>
      .cls-1 {
        fill: url(#linear-gradient);
      }

      .cls-2 {
        fill: url(#linear-gradient-2);
      }

      .cls-3 {
        fill: url(#radial-gradient);
        isolation: isolate;
        opacity: .444;
      }
    </style>
    <linearGradient id="linear-gradient" x1="140.00571" y1="224.85715" x2="152.79168" y2="235.85779" gradientTransform="translate(-79.14242 -127.33938) scale(.563)" gradientUnits="userSpaceOnUse">
      <stop offset="0" stop-color="#5a9fd4"/>
      <stop offset="1" stop-color="#306998"/>
    </linearGradient>
    <linearGradient id="linear-gradient-2" x1="157.72771" y1="242.51647" x2="153.16201" y2="236.05696" gradientTransform="translate(-79.14242 -127.33938) scale(.563)" gradientUnits="userSpaceOnUse">
      <stop offset="0" stop-color="#ffd43b"/>
      <stop offset="1" stop-color="#ffe873"/>
    </linearGradient>
    <radialGradient id="radial-gradient" cx="-1663.08276" cy="-514.35958" fx="-1663.08276" fy="-514.35958" r="3.40549" gradientTransform="translate(549.17837 -385.49317) rotate(-90) scale(.24 1.055)" gradientUnits="userSpaceOnUse">
      <stop offset="0" stop-color="#b8b8b8" stop-opacity=".498"/>
      <stop offset="1" stop-color="#7f7f7f" stop-opacity="0"/>
    </radialGradient>
  </defs>
  <g id="Skills_Modal" data-name="Skills Modal">
    <g>
      <path class="cls-1" d="m6.44076.0001c-.53764.00255-1.05082.04826-1.50263.12823-1.33072.23507-1.57216.72712-1.57216,1.63468v1.19841h3.14444v.39947H2.18578c-.9138,0-1.71402.54922-1.96437,1.59444-.28881,1.19765-.30154,1.94514,0,3.19576.22348.93099.7573,1.59419,1.67123,1.59419h1.08126v-1.43667c0-1.03796.89788-1.95342,1.96437-1.95342h3.14088c.87433,0,1.57216-.71999,1.57216-1.59788V1.76314c0-.8523-.71897-1.49244-1.57216-1.63468C7.5387.03856,6.97827-.00232,6.44076.0001Zm-1.70052.96385c.32472,0,.5901.26958.5901.60118,0,.3302-.26525.59723-.5901.59723-.32599,0-.58997-.26703-.58997-.59723-.00013-.3316.26398-.60118.58997-.60118Z"/>
      <path class="cls-2" d="m10.04338,3.3609v1.39643c0,1.0824-.91788,1.99353-1.96437,1.99353h-3.14088c-.86032,0-1.57216.73642-1.57216,1.59801v2.99443c0,.85204.74087,1.35338,1.57216,1.59775.9953.2925,1.94985.34548,3.14088,0,.79155-.22934,1.57216-.69057,1.57216-1.59775v-1.19854h-3.14075v-.3996h4.71316c.9138,0,1.25457-.63734,1.57241-1.59419.32829-.98499.31415-1.93228,0-3.19576-.2259-.90985-.65721-1.59444-1.57241-1.59444h-1.1802v.00013Zm-1.76661,7.5828c.32612,0,.5901.26703.5901.59749,0,.33134-.26411.60092-.5901.60092-.32472,0-.58997-.26958-.58997-.60092,0-.33045.26525-.59749.58997-.59749Z"/>
      <path class="cls-3" d="m10.75993,13.67007c0,.45117-1.88669.81702-4.21385.81702-2.32729,0-4.21398-.36585-4.21398-.81702,0-.4513,1.88656-.81715,4.21398-.81715,2.32716,0,4.21385.36572,4.21385.81715Z"/>
    </g>
  </g>
</svg>