<?xml version="1.0" encoding="UTF-8"?>
<svg id="Layer_2" data-name="Layer 2" xmlns="http://www.w3.org/2000/svg" viewBox="0 0 16.43124 14.67263">
  <defs>
    <style>
      .cls-1 {
        fill: #61dafb;
      }
    </style>
  </defs>
  <g id="Skills_Modal" data-name="Skills Modal">
    <g>
      <circle class="cls-1" cx="8.21562" cy="7.33631" r="1.49614"/>
      <path class="cls-1" d="m13.89831,4.869c-.28873-.10499-.59058-.20998-.90556-.30185.07874-.31498.14436-.62995.19686-.9318.2756-1.73237-.02625-2.9529-.86618-3.42536-.24936-.14436-.52496-.20998-.83994-.20998-.91868,0-2.08672.68245-3.26788,1.82424-1.18116-1.14179-2.3492-1.82424-3.26788-1.82424-.31498,0-.59058.06562-.83994.20998-.83994.48559-1.14179,1.70612-.86618,3.42536.0525.30185.11812.61683.19686.9318-.31498.09187-.61683.18374-.90556.30185-1.6405.62995-2.53293,1.49614-2.53293,2.46731s.90556,1.83736,2.53293,2.46731c.28873.10499.59058.20998.90556.30185-.07874.31498-.14436.62995-.19686.9318-.2756,1.73237.02625,2.9529.86618,3.42536.24936.14436.52496.20998.83994.20998.9318,0,2.09984-.68245,3.26788-1.82424,1.18116,1.14179,2.3492,1.82424,3.26788,1.82424.31498,0,.59058-.06562.83994-.20998.83994-.48559,1.14179-1.70612.86618-3.42536-.0525-.30185-.11812-.61683-.19686-.9318.31498-.09187.61683-.18374.90556-.30185,1.6405-.62995,2.53293-1.49614,2.53293-2.46731s-.89243-1.83736-2.53293-2.46731Zm-1.94235-4.00282c.53808.31498.72182,1.28615.49871,2.66417-.03937.2756-.10499.56433-.18374.86618-.68245-.15749-1.40427-.26248-2.16546-.3281-.44622-.62995-.90556-1.19428-1.3649-1.70612.97118-.95805,1.95548-1.61425,2.75604-1.61425.17061,0,.3281.03937.45934.11812Zm-1.46989,7.78253c-.23623.41997-.51184.83994-.80056,1.2599-.48559.03937-.97118.0525-1.46989.0525-.51184,0-.99742-.01312-1.46989-.0525-.28873-.41997-.55121-.83994-.78744-1.2599-.24936-.43309-.48559-.87931-.69557-1.3124.20998-.43309.44622-.87931.69557-1.3124.23623-.41997.51184-.83994.80056-1.2599.48559-.03937.97118-.0525,1.46989-.0525.51184,0,.99742.01312,1.46989.0525.28873.41997.55121.83994.78744,1.2599.24936.43309.48559.87931.69557,1.3124-.22311.43309-.44622.86618-.69557,1.3124Zm1.08929-.43309c.19686.45934.35435.90556.49871,1.35177-.44622.10499-.91868.18374-1.41739.24936.15749-.24936.3281-.51184.47246-.78744.15749-.2756.30185-.55121.44622-.81369Zm-3.35974,3.5566c-.31498-.34122-.61683-.7087-.90556-1.08929.30185.01312.6037.02625.90556.02625s.6037-.01312.90556-.02625c-.28873.3806-.59058.74807-.90556,1.08929Zm-2.44106-1.9686c-.49871-.06562-.97118-.14436-1.41739-.24936.14436-.43309.30185-.89243.49871-1.35177.14436.26248.28873.53808.44622.80056.15749.28873.31498.53808.47246.80056Zm-.91868-3.34662c-.19686-.45934-.35435-.90556-.49871-1.35177.44622-.10499.91868-.18374,1.41739-.24936-.15749.24936-.3281.51184-.47246.78744-.15749.2756-.30185.55121-.44622.81369Zm3.35974-3.5566c.31498.34122.61683.7087.90556,1.08929-.30185-.01312-.6037-.02625-.90556-.02625s-.6037.01312-.90556.02625c.28873-.3806.59058-.74807.90556-1.08929Zm2.91353,2.75604l-.47246-.78744c.49871.06562.97118.14436,1.41739.24936-.14436.43309-.30185.89243-.49871,1.35177-.14436-.2756-.28873-.55121-.44622-.81369ZM3.97657,3.53035c-.22311-1.37802-.03937-2.3492.49871-2.66417.13124-.07874.28873-.11812.45934-.11812.78744,0,1.77174.64308,2.75604,1.61425-.45934.49871-.91868,1.07617-1.3649,1.70612-.76119.06562-1.48301.18374-2.16546.3281-.07874-.30185-.13124-.59058-.18374-.86618ZM.73494,7.33631c0-.61683.74807-1.27303,2.06047-1.75862.26248-.10499.55121-.19686.83994-.2756.20998.6562.47246,1.35177.78744,2.04734-.31498.69557-.59058,1.37802-.78744,2.03422-1.81111-.52496-2.9004-1.3124-2.9004-2.04734Zm3.74034,6.47013c-.53808-.31498-.72182-1.28615-.49871-2.66417.03937-.2756.10499-.56433.18374-.86618.68245.15749,1.40427.26248,2.16546.3281.44622.62995.90556,1.19428,1.3649,1.70612-.97118.95805-1.95548,1.61425-2.75604,1.61425-.17061,0-.3281-.03937-.45934-.11812Zm7.97939-2.66417c.22311,1.37802.03937,2.3492-.49871,2.66417-.13124.07874-.28873.11812-.45934.11812-.78744,0-1.77174-.64308-2.75604-1.61425.45934-.49871.91868-1.07617,1.3649-1.70612.76119-.06562,1.48301-.18374,2.16546-.3281.07874.30185.13124.59058.18374.86618Zm1.18116-2.04734c-.26248.10499-.55121.19686-.83994.2756-.20998-.6562-.47246-1.35177-.78744-2.04734.31498-.69557.59058-1.37802.78744-2.03422,1.81111.52496,2.9004,1.3124,2.9004,2.04734,0,.61683-.76119,1.27303-2.06047,1.75862Z"/>
    </g>
  </g>
</svg>