<?xml version="1.0" encoding="UTF-8"?>
<svg id="Layer_2" data-name="Layer 2" xmlns="http://www.w3.org/2000/svg" viewBox="0 0 15.4324 14.65151">
  <defs>
    <style>
      .cls-1 {
        fill: #764abc;
      }
    </style>
  </defs>
  <g id="Skills_Modal" data-name="Skills Modal">
    <path class="cls-1" d="m10.69291,10.23267c-1.08512,2.21846-2.98528,3.71111-5.49914,4.20182-.38544.09443-.78113.1406-1.17796.13745-1.44682,0-2.77308-.60284-3.41692-1.5903-.86448-1.3154-1.15867-4.10416,1.69158-6.16709.05787.31468.17603.74632.2544,1.00193-.55952.41568-1.01751.95282-1.33952,1.57101-.5305,1.04171-.47142,2.08222.15674,3.04436.43405.64866,1.12129,1.04292,2.00506,1.16349,1.10385.13972,2.22369-.07117,3.2011-.60284,1.53243-.8054,2.55365-1.76754,3.2216-3.08294-.18887-.19518-.30066-.45217-.31468-.72341-.02102-.60605.45258-1.11472,1.05859-1.13696h.04099c.60928-.00305,1.10566.48839,1.10872,1.09766.00284.56685-.42438,1.04361-.98815,1.10272l-.00241-.01688Zm3.45671-2.43549c1.47215,1.66867,1.51193,3.63274.94285,4.77211-.5305,1.04051-1.9291,2.08222-3.80997,2.08222-.87802-.01791-1.74177-.22562-2.53194-.60887.2761-.19653.66795-.51121.88377-.70774.60934.26398,1.26509.40414,1.9291.41234,1.21774,0,2.1401-.56908,2.68989-1.60959.35327-.68724.37376-1.49264.03979-2.31733-.40981-1.03763-1.13903-1.91802-2.08222-2.51386-1.23744-.83416-2.69622-1.27885-4.18856-1.27682h-.35327c-.16805.38819-.54205.64719-.96455.66795h-.03738c-.60791-.00747-1.09465-.50633-1.08718-1.11424.00717-.58335.46821-1.0598,1.05101-1.08614h.03979c.40658.0003.77888.22787.96455.58958h.31468c2.50783,0,4.70942.96214,6.19965,2.71039Zm-9.97706,2.77308c-.02065-.20021.02786-.40146.13745-.57029-1.09959-1.90499-1.68796-4.31998-.7849-6.83384.64745-1.88931,2.27754-3.16614,4.04508-3.16614,1.88569,0,3.84976,1.65059,4.08487,4.83119-.29419-.09766-.72341-.24114-.98143-.29419-.0639-1.04051-.94285-3.63274-3.02507-3.59415-.74632.0205-1.84591.37376-2.41137,1.09959-.69946.86643-1.10637,1.93223-1.16228,3.04436-.13254,1.52492.22524,3.05234,1.02122,4.35977.04394-.01606.09078-.02263.13745-.01929h.03858c.60728-.01099,1.10849.47241,1.11948,1.07969.01099.60729-.47241,1.10849-1.07969,1.11948h-.03979c-.59107-.0021-1.07572-.4692-1.09959-1.0598v.00362Z"/>
  </g>
</svg>