<?xml version="1.0" encoding="UTF-8"?>
<svg id="Layer_2" data-name="Layer 2" xmlns="http://www.w3.org/2000/svg" xmlns:xlink="http://www.w3.org/1999/xlink" viewBox="0 0 14.12538 14.04404">
  <defs>
    <style>
      .cls-1 {
        fill: url(#linear-gradient);
        isolation: isolate;
        opacity: .25;
      }

      .cls-1, .cls-2 {
        fill-rule: evenodd;
      }

      .cls-3 {
        fill: #0065a9;
      }

      .cls-4 {
        fill: #007acc;
      }

      .cls-5 {
        fill: #1f9cf0;
      }

      .cls-6 {
        fill: none;
        mask: url(#mask);
      }

      .cls-2 {
        fill: #fff;
      }
    </style>
    <mask id="mask" x="0" y="0" width="14.12538" height="14.04405" maskUnits="userSpaceOnUse">
      <g id="a">
        <path class="cls-2" d="m10.01905,13.98402c.22707.08853.48072.07879.70032-.02691l2.9064-1.39855c.30544-.14704.49963-.45607.4996-.79506V2.28065c.00007-.33903-.19412-.64812-.4996-.79517L10.71937.08715c-.3366-.16196-.7388-.09349-1.00284.17072l-5.564,5.07609-2.42345-1.8397c-.22557-.17127-.54121-.15726-.75073.03331l-.77731.70705c-.2404.21865-.25803.59077-.03938.83117.0123.01352.02522.02646.03872.03878l2.10175,1.91746L.20049,8.93959c-.24003.21913-.25697.59136-.03784.83139.01223.0134.02508.02623.0385.03844l.77731.70705c.20947.19065.52515.2047.75073.03342l2.42346-1.83959,5.564,5.07598c.08603.08618.18906.15353.30252.19775h-.00011Zm.57923-10.16662l-4.22169,3.20462,4.2218,3.20473V3.8174h-.00011Z"/>
      </g>
    </mask>
    <linearGradient id="linear-gradient" x1="7.05839" y1="-1041.50002" x2="7.05839" y2="-1055.54384" gradientTransform="translate(0 -1041.49981) scale(1 -1)" gradientUnits="userSpaceOnUse">
      <stop offset="0" stop-color="#fff"/>
      <stop offset="1" stop-color="#fff" stop-opacity="0"/>
    </linearGradient>
  </defs>
  <g id="Skills_Modal" data-name="Skills Modal">
    <g class="cls-6">
      <g>
        <path class="cls-3" d="m13.62589,1.4878L10.71717.08715c-.33673-.16206-.73911-.09359-1.00328.17072L.19189,8.93959c-.24003.21886-.25719.59087-.03833.8309.01238.01358.02539.02657.03899.03893l.77775.70705c.20965.19063.52542.20468.75117.03342L13.18816,1.85097c.38468-.29182.93722-.01743.93722.46541v-.03375c-.00002-.33892-.19415-.64788-.49949-.79495v.00011Z"/>
        <path class="cls-4" d="m13.62589,12.55635l-2.90872,1.40043c-.33668.16212-.73906.09374-1.00328-.1705L.19189,5.10445c-.24003-.21886-.25719-.59087-.03833-.8309.01238-.01358.02539-.02657.03899-.03893l.77775-.70705c.20965-.19063.52542-.20468.75117-.03342l11.46669,8.69881c.38468.29193.93722.01754.93722-.4653v.03375c-.00002.33892-.19415.64788-.49949.79495Z"/>
        <path class="cls-5" d="m10.71728,13.95711c-.3368.16195-.73916.09345-1.00339-.17084.32557.32557.8823.09496.8823-.36549V.62314c0-.46045-.55673-.69106-.8823-.36538.26423-.26428.66659-.33279,1.00339-.17084l2.90817,1.39866c.30561.14696.49994.45607.49993.79517v9.48273c.00001.33911-.19433.64821-.49993.79517l-2.90817,1.39855v-.00011Z"/>
        <path class="cls-1" d="m10.01056,13.98402c.22704.0885.48064.07875.70021-.02691l2.9064-1.39855c.30548-.14705.49968-.45614.4996-.79517V2.28065c.00007-.33903-.19412-.64812-.4996-.79517L10.71077.08715c-.3366-.16196-.7388-.09349-1.00284.17072l-5.564,5.07609-2.42346-1.83959c-.22557-.17127-.54121-.15726-.75073.03331l-.77731.70705c-.2404.21874-.25795.59094-.03922.83133.01225.01346.02511.02635.03856.03862l2.10175,1.91735L.19189,8.93947c-.24006.21901-.25713.59116-.03812.83123.01232.0135.02526.02642.03878.03872l.77731.70705c.20949.1906.52513.20466.75073.03342l2.42357-1.8397,5.564,5.07609c.086.08617.18898.15351.30241.19774Zm.57923-10.16673l-4.2218,3.20473,4.2218,3.20462V3.81729Z"/>
      </g>
    </g>
  </g>
</svg>