<?xml version="1.0" encoding="UTF-8"?>
<svg id="Layer_2" data-name="Layer 2" xmlns="http://www.w3.org/2000/svg" viewBox="0 0 14.21024 14.1764">
  <defs>
    <style>
      .cls-1 {
        fill: #ff5af9;
      }

      .cls-2 {
        fill: #480038;
      }
    </style>
  </defs>
  <g id="Skills_Modal" data-name="Skills Modal">
    <g>
      <path class="cls-1" d="m14.03439.17718v13.84933c-2.56854,0-5.13709.00018-7.70563-.00006-2.05946-.00019-4.11891-.00088-6.17837-.00135-.00146-.03691-.00419-.07382-.0042-.11072-.00019-4.53307-.00018-9.06614-.00018-13.59921,0-.0446,0-.0892,0-.14265h.18119c4.51824,0,9.03648-.00002,13.55472.00019.05082,0,.10165.00291.15247.00447Z"/>
      <path class="cls-2" d="m14.21024.25939c0-.23684,0-.25939-.22556-.25939H.28195c-.22556,0-.28195.02256-.28195.24812v13.70273c0,.22556.03383.22556.24812.22556h13.73656c.18045,0,.22556-.04511.22556-.22556-.01128-2.27815,0-4.56758,0-6.84573V.25939Zm-7.70285,10.22912l-1.09396-2.4586-1.15035,2.4586h-1.26313l1.6353-3.30444-1.52253-3.49617,1.29697.01128.95863,2.28943,1.17291-2.3007h1.21802l-1.64658,3.31572,1.6353,3.48489s-1.24058,0-1.24058,0Zm4.91719-6.67656v6.38333c0,.16917-.02256.27067-.19173.28195-.78946.1015-1.57892.21428-2.3571-.01128-.84585-.23684-1.3308-.90224-1.36463-1.81575-.04511-1.1278.38345-1.90598,1.21802-2.26687.51879-.22556,1.04885-.23684,1.64658-.18045v-2.50371h1.04885s0,.11278,0,.11278Zm-2.1992,5.79687c.37217.1015.74435.06767,1.1278,0v-2.25559c0-.03383-.04511-.1015-.07895-.11278-.41728-.06767-.84585-.06767-1.24058.14661-.40601.22556-.62029.69923-.57518,1.25185.03383.50751.3045.83457.7669.9699Z"/>
    </g>
  </g>
</svg>