<?xml version="1.0" encoding="utf-8"?>
<!-- Generator: Adobe Illustrator 27.7.0, SVG Export Plug-In . SVG Version: 6.00 Build 0)  -->
<svg version="1.1" id="Layer_2_00000109731803482571186140000000079452822860180613_"
	 xmlns="http://www.w3.org/2000/svg" xmlns:xlink="http://www.w3.org/1999/xlink" x="0px" y="0px" viewBox="0 0 193.2 102.7"
	 style="enable-background:new 0 0 193.2 102.7;" xml:space="preserve">
<style type="text/css">
	.st0{fill:none;stroke:#CACACA;stroke-miterlimit:10;}
</style>
<g id="Landing_Page">
	<g>
		<path class="st0" d="M99,49.2c0,1,0.8,1.8,1.8,1.8s1.8-0.8,1.8-1.8c0-2-1.6-3.6-3.6-3.6s-3.6,1.6-3.6,3.6c0,3,2.4,5.3,5.3,5.3
			s5.3-2.4,5.3-5.3c0-3.9-3.2-7.1-7.1-7.1s-7.1,3.2-7.1,7.1c0,4.9,4,8.9,8.9,8.9s8.9-4,8.9-8.9c0-5.9-4.8-10.7-10.7-10.7
			s-10.7,4.8-10.7,10.7c0,6.9,5.6,12.5,12.5,12.5s12.5-5.6,12.5-12.5c0-7.9-6.4-14.3-14.3-14.3s-14.3,6.4-14.3,14.3
			c0,8.9,7.2,16,16,16s16-7.2,16-16c0-9.9-8-17.8-17.8-17.8s-17.8,8-17.8,17.8c0,10.8,8.8,19.6,19.6,19.6s19.6-8.8,19.6-19.6
			c0-11.8-9.6-21.4-21.4-21.4s-21.4,9.6-21.4,21.4"/>
		<path class="st0" d="M122.2,49.2c0,11.8-9.6,21.4-21.4,21.4S79.4,61,79.4,49.2c0-10.8,8.8-19.6,19.6-19.6s19.6,8.8,19.6,19.6
			c0,9.9-8,17.8-17.8,17.8S83,59,83,49.2c0-8.9,7.2-16,16-16s16,7.2,16,16c0,7.9-6.4,14.3-14.3,14.3s-14.3-6.4-14.3-14.3
			c0-6.9,5.6-12.5,12.5-12.5s12.5,5.6,12.5,12.5c0,5.9-4.8,10.7-10.7,10.7s-10.7-4.8-10.7-10.7c0-4.9,4-8.9,8.9-8.9s8.9,4,8.9,8.9
			c0,3.9-3.2,7.1-7.1,7.1s-7.1-3.2-7.1-7.1c0-3,2.4-5.3,5.3-5.3s5.3,2.4,5.3,5.3c0,2-1.6,3.6-3.6,3.6s-3.6-1.6-3.6-3.6
			c0-1,0.8-1.8,1.8-1.8s1.8,0.8,1.8,1.8"/>
	</g>
</g>
</svg>
