<?xml version="1.0" encoding="UTF-8"?>
<svg id="Layer_2" data-name="Layer 2" xmlns="http://www.w3.org/2000/svg" viewBox="0 0 54.93538 54.93538">
  <defs>
    <style>
      .cls-1 {
        stroke-width: 2.2536px;
      }

      .cls-1, .cls-2 {
        fill: none;
        stroke: #ccc;
        stroke-miterlimit: 10;
      }
    </style>
  </defs>
  <g id="Layer_2-2" data-name="Layer 2">
    <circle class="cls-1" cx="27.46769" cy="27.46769" r="26.34089"/>
    <g>
      <path class="cls-2" d="m26.57642,27.46769c0,.98527.79727,1.78253,1.78254,1.78253s1.78254-.79726,1.78254-1.78253c0-1.97053-1.59454-3.56506-3.56509-3.56506s-3.56509,1.59453-3.56509,3.56506c0,2.9558,2.39181,5.34759,5.34763,5.34759s5.34763-2.39179,5.34763-5.34759c0-3.94106-3.18908-7.13012-7.13018-7.13012s-7.13018,3.18906-7.13018,7.13012c0,4.92633,3.98635,8.91265,8.91272,8.91265s8.91272-3.98632,8.91272-8.91265c0-5.91159-4.78363-10.69518-10.69527-10.69518s-10.69527,4.78359-10.69527,10.69518c0,6.89686,5.5809,12.47771,12.47781,12.47771s12.47781-5.58085,12.47781-12.47771c0-7.88213-6.37817-14.26024-14.26036-14.26024s-14.26036,6.37812-14.26036,14.26024c0,8.86739,7.17544,16.04277,16.0429,16.04277s16.0429-7.17538,16.0429-16.04277c0-9.85266-7.97271-17.8253-17.82544-17.8253s-17.82544,7.97264-17.82544,17.8253c0,10.83792,8.76998,19.60783,19.60799,19.60783s19.60799-8.76991,19.60799-19.60783c0-11.82319-9.56725-21.39036-21.39053-21.39036S5.18588,15.6445,5.18588,27.46769"/>
      <path class="cls-2" d="m49.74949,27.46769c0,11.82319-9.56725,21.39036-21.39053,21.39036S6.96843,39.29088,6.96843,27.46769c0-10.83792,8.76998-19.60783,19.60799-19.60783s19.60799,8.76991,19.60799,19.60783c0,9.85266-7.97271,17.8253-17.82544,17.8253s-17.82544-7.97264-17.82544-17.8253c0-8.86739,7.17544-16.04277,16.0429-16.04277s16.0429,7.17538,16.0429,16.04277c0,7.88213-6.37817,14.26024-14.26036,14.26024s-14.26036-6.37812-14.26036-14.26024c0-6.89686,5.5809-12.47771,12.47781-12.47771s12.47781,5.58085,12.47781,12.47771c0,5.91159-4.78363,10.69518-10.69527,10.69518s-10.69527-4.78359-10.69527-10.69518c0-4.92633,3.98635-8.91265,8.91272-8.91265s8.91272,3.98632,8.91272,8.91265c0,3.94106-3.18908,7.13012-7.13018,7.13012s-7.13018-3.18906-7.13018-7.13012c0-2.9558,2.39181-5.34759,5.34763-5.34759s5.34763,2.39179,5.34763,5.34759c0,1.97053-1.59454,3.56506-3.56509,3.56506s-3.56509-1.59453-3.56509-3.56506c0-.98527.79727-1.78253,1.78254-1.78253s1.78254.79726,1.78254,1.78253"/>
    </g>
  </g>
</svg>