<?xml version="1.0" encoding="UTF-8"?>
<svg id="Layer_2" data-name="Layer 2" xmlns="http://www.w3.org/2000/svg" viewBox="0 0 20.29404 11.50211">
  <defs>
    <style>
      .cls-1 {
        fill: #028bb8;
      }

      .cls-2 {
        fill: #019bc6;
      }

      .cls-3 {
        fill: #00aada;
      }

      .cls-4 {
        fill: #bfdbe0;
      }

      .cls-5, .cls-6 {
        fill: #d4eef1;
      }

      .cls-7 {
        fill: #28b8eb;
      }

      .cls-8 {
        fill: #3a4d54;
      }

      .cls-8, .cls-9, .cls-6, .cls-10 {
        fill-rule: evenodd;
      }

      .cls-9 {
        fill: #23c2ee;
      }

      .cls-10 {
        fill: #00acd3;
      }
    </style>
  </defs>
  <g id="Skills_Modal" data-name="Skills Modal">
    <g>
      <path class="cls-8" d="m11.72796,3.6297h1.82292v1.85518h.91952c.41943,0,.855-.08066,1.2583-.20972.19358-.06453.41943-.16132.61302-.27424-.25811-.33877-.38717-.7582-.41943-1.17763-.0484-.56462.06453-1.30669.4517-1.74225l.19358-.22585.22585.17745c.58075.46783,1.04858,1.09698,1.14537,1.83905.69368-.20972,1.50028-.16132,2.11329.19358l.24198.14519-.12906.25811c-.51622,1.00018-1.59707,1.32282-2.64565,1.25829-1.58094,3.92007-5.00092,5.77525-9.16297,5.77525-2.14555,0-4.11366-.8066-5.2429-2.71017l-.01613-.03226-.16132-.33877c-.38717-.83886-.50009-1.75839-.41943-2.67791l.03226-.27424h1.54867v-1.83905h1.82291v-1.80678h3.6297V0h2.17782v3.6297Z"/>
      <path class="cls-3" d="m17.63226,4.32337c.12906-.95179-.58075-1.69386-1.03245-2.04876-.50009.58075-.58075,2.12942.20972,2.7747-.4517.38717-1.37122.7582-2.33914.7582H2.8231c-.09679,1.00018.08066,1.91971.48396,2.71017l.12906.24198c.08066.14519.17745.27424.27424.41943.48396.03226.91952.0484,1.32282.03226.79047-.01613,1.43575-.11292,1.93584-.27424.08066-.03226.14519.01613.17745.08066.03226.08066-.01613.14519-.08066.17745-.06453.01613-.12906.0484-.20972.06453-.38717.11292-.8066.17745-1.33895.20972h-.09679c-.20972.01613-.43556.01613-.67754.01613-.25811,0-.50009,0-.79047-.01613.96792,1.09698,2.48433,1.74226,4.3879,1.74226,4.033,0,7.45298-1.79065,8.95325-5.79138,1.08084.11292,2.11329-.16132,2.58112-1.08084-.72594-.43556-1.69386-.29038-2.24235-.01613Z"/>
      <path class="cls-7" d="m17.63226,4.32337c.12906-.95179-.58075-1.69386-1.03245-2.04876-.50009.58075-.58075,2.12942.20972,2.7747-.4517.38717-1.37122.7582-2.33914.7582H3.50064c-.0484,1.53254.51622,2.69404,1.53254,3.38772.79047-.01613,1.43575-.11292,1.93584-.27424.08066-.03226.14519.01613.17745.08066.03226.08066-.01613.14519-.08066.17745-.06453.01613-.12906.0484-.20972.06453-.38717.11292-.83886.19358-1.37122.22585l-.01613-.01613c1.37122.70981,3.35545.69368,5.6462-.17745,2.54885-.98405,4.93639-2.85536,6.59798-4.98478-.03226.01613-.06453.01613-.08066.03226Z"/>
      <path class="cls-1" d="m2.83923,7.01742c.06453.53236.22585,1.03245.46783,1.50028l.12906.24198c.08066.14519.17745.27424.27424.41943.48396.03226.91952.0484,1.32282.03226.79047-.01613,1.43575-.11292,1.93584-.27424.08066-.03226.14519.01613.17745.08066.03226.08066-.01613.14519-.08066.17745-.06453.01613-.12906.0484-.20972.06453-.38717.11292-.83886.19358-1.37122.22585h-.06453c-.20972.01613-.43556.01613-.66141.01613-.25811,0-.51622,0-.79047-.01613.96792,1.09698,2.50046,1.74226,4.40403,1.74226,3.45224,0,6.4528-1.30669,8.19505-4.19432H2.83923v-.01613Z"/>
      <path class="cls-2" d="m3.61357,7.01742c.20972.93566.69368,1.67773,1.41961,2.17782.79047-.01613,1.43575-.11292,1.93584-.27424.08066-.03226.14519.01613.17745.08066.03226.08066-.01613.14519-.08066.17745-.06453.01613-.12906.0484-.20972.06453-.38717.11292-.83886.19358-1.38735.22585,1.37122.70981,3.35545.69368,5.63006-.17745,1.37122-.53236,2.71017-1.32282,3.90394-2.27461,0,0-11.38918,0-11.38918,0Z"/>
      <path class="cls-10" d="m4.40403,3.93621h1.58093v1.58093h-1.58093s0-1.58093,0-1.58093Zm.12906.12906h.12906v1.30669h-.12906v-1.30669Zm.22585,0h.12906v1.30669h-.12906v-1.30669Zm.24198,0h.12906v1.30669h-.12906v-1.30669Zm.24198,0h.12906v1.30669h-.12906v-1.30669Zm.24198,0h.12906v1.30669h-.12906v-1.30669Zm.24198,0h.12906v1.30669h-.12906v-1.30669Zm.48396-1.93584h1.58093v1.58093h-1.58093v-1.58093Zm.14519.12906h.12906v1.30669h-.12906v-1.30669Zm.22585,0h.12906v1.30669h-.12906v-1.30669Zm.24198,0h.12906v1.30669h-.12906v-1.30669Zm.24198,0h.12906v1.30669h-.12906v-1.30669Zm.22585,0h.12906v1.30669h-.12906v-1.30669Zm.24198,0h.12906v1.30669h-.12906v-1.30669Z"/>
      <path class="cls-9" d="m6.21081,3.93621h1.58093v1.58093h-1.58093v-1.58093Zm.14519.12906h.12906v1.30669h-.12906v-1.30669Zm.22585,0h.12906v1.30669h-.12906v-1.30669Zm.24198,0h.12906v1.30669h-.12906v-1.30669Zm.24198,0h.12906v1.30669h-.12906v-1.30669Zm.22585,0h.12906v1.30669h-.12906v-1.30669Zm.24198,0h.12906v1.30669h-.12906v-1.30669Z"/>
      <path class="cls-10" d="m8.03373,3.93621h1.58093v1.58093h-1.58093v-1.58093Zm.12906.12906h.12906v1.30669h-.12906v-1.30669Zm.24198,0h.12906v1.30669h-.12906v-1.30669Zm.24198,0h.12906v1.30669h-.12906v-1.30669Zm.22585,0h.12906v1.30669h-.12906v-1.30669Zm.24198,0h.12906v1.30669h-.12906v-1.30669Zm.24198,0h.12906v1.30669h-.12906v-1.30669Z"/>
      <path class="cls-9" d="m8.03373,2.12942h1.58093v1.58093h-1.58093v-1.58093Zm.12906.12906h.12906v1.30669h-.12906v-1.30669Zm.24198,0h.12906v1.30669h-.12906v-1.30669Zm.24198,0h.12906v1.30669h-.12906v-1.30669Zm.22585,0h.12906v1.30669h-.12906v-1.30669Zm.24198,0h.12906v1.30669h-.12906v-1.30669Zm.24198,0h.12906v1.30669h-.12906v-1.30669Zm.50009,1.67773h1.58093v1.58093h-1.58093v-1.58093Zm.12906.12906h.12906v1.30669h-.12906v-1.30669Zm.24198,0h.12906v1.30669h-.12906v-1.30669Zm.22585,0h.12906v1.30669h-.12906v-1.30669Zm.24198,0h.12906v1.30669h-.12906v-1.30669Zm.24198,0h.12906v1.30669h-.12906v-1.30669Zm.24198,0h.12906v1.30669h-.12906v-1.30669Z"/>
      <path class="cls-10" d="m9.85664,2.12942h1.58093v1.58093h-1.58093v-1.58093Zm.12906.12906h.12906v1.30669h-.12906v-1.30669Zm.24198,0h.12906v1.30669h-.12906v-1.30669Zm.22585,0h.12906v1.30669h-.12906v-1.30669Zm.24198,0h.12906v1.30669h-.12906v-1.30669Zm.24198,0h.12906v1.30669h-.12906v-1.30669Zm.24198,0h.12906v1.30669h-.12906v-1.30669Z"/>
      <path class="cls-9" d="m9.85664.30651h1.58093v1.58093h-1.58093V.30651Zm.12906.12906h.12906v1.30669h-.12906V.43556Zm.24198,0h.12906v1.30669h-.12906V.43556Zm.22585,0h.12906v1.30669h-.12906V.43556Zm.24198,0h.12906v1.30669h-.12906V.43556Zm.24198,0h.12906v1.30669h-.12906V.43556Zm.24198,0h.12906v1.30669h-.12906V.43556Z"/>
      <path class="cls-10" d="m11.67956,3.93621h1.58094v1.58093h-1.58094v-1.58093Zm.12906.12906h.12906v1.30669h-.12906v-1.30669Zm.22585,0h.12906v1.30669h-.12906v-1.30669Zm.24198,0h.12906v1.30669h-.12906v-1.30669Zm.24198,0h.12906v1.30669h-.12906v-1.30669Zm.24198,0h.12906v1.30669h-.12906v-1.30669Zm.24198,0h.12906v1.30669h-.12906v-1.30669Z"/>
      <path class="cls-6" d="m7.69496,8.06599c.24198,0,.43556.19358.43556.43556s-.19358.43556-.43556.43556-.43556-.19358-.43556-.43556.19358-.43556.43556-.43556"/>
      <path class="cls-8" d="m7.69496,8.19505c.03226,0,.08066,0,.11292.01613-.03226.01613-.06453.06453-.06453.11292,0,.06453.06453.12906.12906.12906.0484,0,.09679-.03226.11292-.06453.01613.03226.01613.08066.01613.11292,0,.17745-.14519.30651-.30651.30651-.17745,0-.30651-.14519-.30651-.30651s.12906-.30651.30651-.30651M0,7.17874h20.22951c-.43556-.11292-1.38735-.25811-1.24216-.83886-.8066.91952-2.72631.64528-3.2264.19358-.54849.79047-3.71036.48396-3.92007-.12906-.67754.8066-2.79083.8066-3.46838,0-.22585.61302-3.38772.91952-3.92007.12906-.48396.4517-2.4198.72594-3.2264-.19358C1.40348,6.90449.43556,7.06581,0,7.17874"/>
      <path class="cls-4" d="m8.85646,11.21173c-1.08084-.51622-1.66159-1.2099-2.00037-1.9681-.4033.11292-.88726.19358-1.43575.22585-.20972.01613-.43556.01613-.66141.01613-.27424,0-.54849,0-.83886-.01613.96792.96792,2.19395,1.72612,4.4363,1.74226,0,0,.50009,0,.50009,0Z"/>
      <path class="cls-5" d="m7.25939,9.9373c-.14519-.20972-.29038-.4517-.4033-.69368-.4033.11292-.88726.19358-1.43575.22585.37104.19358.91952.38717,1.83905.46783Z"/>
    </g>
  </g>
</svg>