<?xml version="1.0" encoding="UTF-8"?>
<svg id="Layer_2" data-name="Layer 2" xmlns="http://www.w3.org/2000/svg" viewBox="0 0 13.90038 13.90049">
  <defs>
    <style>
      .cls-1 {
        fill: #fff;
      }
    </style>
  </defs>
  <g id="Skills_Modal" data-name="Skills Modal">
    <g>
      <path d="m0,0h13.90038v13.90049H0V0Z"/>
      <path class="cls-1" d="m12.4767,9.82451c-.39066.09938-.63226.00428-.84901-.32127-.48662-.72907-1.02378-1.42473-1.5421-2.13323-.06682-.09167-.13622-.18163-.22275-.29557-.61341.82759-1.22597,1.61577-1.80083,2.43566-.20561.293-.42151.42065-.80532.31699l2.30629-3.09533-2.14694-2.79548c.36925-.07196.62455-.03513.85072.29557.49947.72993,1.05034,1.42473,1.5995,2.15979.55258-.7325,1.0966-1.42815,1.61064-2.15123.20647-.293.42836-.40437.79932-.29643-.281.37267-.55601.73935-.83273,1.10346-.37353.4909-.74021.9878-1.12744,1.46842-.13793.17134-.11566.28272.00771.44464.71622.94154,1.42387,1.8925,2.15294,2.86402ZM1.73856,6.68034c.06168-.30928.10281-.62455.18848-.92783.51403-1.83595,2.62157-2.59929,4.06942-1.46157.84815.66738,1.05891,1.60806,1.01693,2.66868H2.23289c-.07196,1.90278,1.29793,3.05164,3.04393,2.46564.61256-.20561.97323-.68538,1.154-1.28508.09167-.30071.24331-.34783.52603-.26216-.14479.75049-.47291,1.37761-1.15829,1.76999-1.02806.58771-2.49563.39752-3.26753-.41894-.45578-.47976-.64939-1.0769-.73507-1.72201-.01285-.10281-.03941-.2039-.05997-.30585.00171-.17363.00257-.34726.00257-.52089Zm.5029-.12765h4.32044c-.02827-1.37589-.88499-2.35341-2.05613-2.36198-1.28508-.01028-2.20863.94411-2.26431,2.36198Z"/>
    </g>
  </g>
</svg>