<?xml version="1.0" encoding="UTF-8"?>
<svg id="Layer_2" data-name="Layer 2" xmlns="http://www.w3.org/2000/svg" viewBox="0 0 12.80599 11.42489">
  <defs>
    <style>
      .cls-1 {
        fill: #fff;
      }
    </style>
  </defs>
  <g id="Skills_Modal" data-name="Skills Modal">
    <path class="cls-1" d="m3.82722,10.17387c-.48772-.38395-1.00773-.75176-1.36401-1.26947-.74831-.91319-1.32481-1.97165-1.71799-3.08316-.23867-.72294-.31938-1.49776-.62724-2.19303-.32054-.50502.05534-1.05616.60764-1.21643.24559-.04727.67912-.28018.15681-.113-.46812.3436-.51309-.31247-.03344-.35397.32746-.04381.44852-.31131.33668-.55345-.35167-.22945.85323-.48196.24674-.8244-.63185-.68143.88321-.81287.50963-.03805-.08878.59495,1.05847-.10954.79212.57766.27096.32976,1.01465.07495.99505.53846.39433.02767.53039.35859.89935.38395.38395.17295,1.07922.31016,1.20951.74254-.38049.30094-1.26255-.62263-1.30406.21215.1153,1.23257.08532,2.50204.53615,3.67581.21331.71026.72986,1.26947,1.19683,1.82291.44737.54192,1.05155.92356,1.66956,1.24525.54076.25482,1.12419.42431,1.71453.53039.23867-.18333.66183-.86245,1.03425-.57651.01845.32284-.74023.67336-.03574.63877.41393-.12453.70103.31938,1.04232-.08186.31362.37242,1.30521-.23752,1.08153.52231-.30209.19486-.74254.07725-1.04578.3459-.49925-.24905-.89589.22253-1.44818.16373-.6134.10954-1.23718.1545-1.85981.1545-1.02042-.08071-2.06274-.11415-3.03242-.46928-.54653-.15912-1.08037-.47043-1.56003-.78174h0Zm.8613.37358c.53385.2306,1.05616.47389,1.64074.54768.92818.12914,1.88748.32746,2.81912.14643-.422-.19025-.85784.07379-1.27754-.13606-.50387.10838-1.04463-.02767-1.55657-.09455-.58227-.25943-1.21066-.43815-1.75604-.77482-.68143-.24905.35282.31938.53615.3655.42546.24213-.46812-.12453-.59495-.22484-.35628-.20062-.4024-.15796-.03574.04497.07379.04266.14759.08878.22484.12568Zm-1.0158-.71833c.5177.1914-.00231-.36435-.23867-.33207-.10492-.18218-.40125-.29748-.19255-.39548-.37588.13029-.39433-.4958-.57074-.40701-.39779-.12568-.1545-.57074-.62839-.84401-.04266-.28825-.47043-.5373-.60648-.97199-.05996-.22253-.48311-.86015-.22368-.26635.22138.57189.60994,1.06192.93394,1.5508.25136.46582.54883.95239,1.00543,1.24295.1545.14989.30324.37703.52116.42316Zm2.27951.96161c.21215.13375,1.23718.29287.59495.05535-.10723.02306-1.19106-.3067-.59495-.05535Zm-2.34292-1.90132c.24905.19025,1.00312.02421.38049-.11415-.28249-.15104-.92126-.25366-.48657.09109,0,0,.10608.02306.10608.02306Zm1.20375.63762c.60764.1718-.51078-.38511-.14989-.06342l.08071.0369.06918.02652Zm.00577-.32169c.4416.0565-.52577-.30094-.09685-.03228l.09685.03228Zm1.53466.94432c.41278-.24674.27672.57766.69988.06918.41739-.3044-.36089.37703.15335.05419.37242-.24905.92126.11761,1.26831.23752.24905-.01268.49234.21561.74831.07725.49234-.1326-.96392-.19717-.58227-.43238-.45083.13144-.78405-.15681-1.00543-.44506-.50617-.11645-1.09075-.37473-1.34326-.82325-.10262-.16834.14874.02421-.08878-.25136-.3044-.27096-.45659-.57881-.66068-.90857-.24444-.13029-.27326-.51424-.29748-.01268.00231-.31593-.29517-.52923-.36781-.44045-.00115-.3044.31823-.1522.09455-.37703-.04843-.31593-.20639-.64453-.25366-1.00082-.07379-.1718-.01038-.53961-.25251-.15104-.08763.41163-.02883-.50502.10838-.20293.17987-.30785-.06457-.27211-.07495-.22945.11761-.26058.07379-.62955-.03113-.48888.06226-.27557.09916-1.01465-.09339-.88321.11645-.28825.22138-1.31905-.28479-.92587-.20524.00346-.55921.07379-.72755.15796.52577.28941-.05304.10492-.2675.0588-.02767.26865-.23983.1522-.50502.1545.42316.05189-.20639.43238-.44852.28479-.31593.15104.27211.52693.00576.64338.03228.17526-.48311-.06342-.44276.34129-.30555-.12914-.04151.47965.11069.27442.52001.14067.36666.46236.37934.76675-.08532.17756-.41854-.41739-.07379-.38972-.27211-.4416-.30094-.15912-.52577.04497-.05189.01499.57535.29171.18102.42892.34706.05419.35743.35743.42777.54883.2087.21677.16603-.23983.41508.02075-.15796-.23291-.83593-.65491-.29056-.52001-.00346-.23406-.09916-.42316.06918-.41854.16603-.29978-.17411.74023.19947.35859.10377-.04497.12914-.29978.31477.02421.26981.26519.09801.45775-.28364.21446.06803.23176.50963.31362.42661.67567.08763.31823.211.20062.31823.18218.08417.30901.13144.08186.13606-.06572.38511.08302.29517.31016.41508.46928.26519.11991-.37934-.81172.0761-.28018.47965.43238.17987.6134-.2502.54422.27211-.02191.35974.36781.69988.35397.31016.14759.52116.71487-.01384.4785-.18564-.16719-.84285-.37358-.30555-.05535.4958.22945.88897.36666,1.36747.65491.34129.24444.49003.52347.61917.57881-.2871.13721-.86591-.10954-.43584-.18564-.26865-.04843-.56959-.18448-.31247.14989.21792.18218.77367.16373.87398.18333-.08417.18564-.22945.20062.00346.21446-.25943.14067.08302.16258.10723.24213Zm-.53039-1.49892c-.15796-.16488-.19832-.47389-.02767-.20524.08648.03459.28018.50502.02767.20524Zm-1.01235-1.66726c-.18794-.42085.13375-.2306.04151.06918l-.04151-.06918Zm-1.73183-1.15417c-.08417-.13836-.22253-.54422-.17872-.66759.04036.20178.42892.86822.19025.27557-.26289-.4958.31477.16142.37473.28479.02767.12337-.16257-.03344-.03344.25482-.23521-.32861-.13836.18218-.35282-.14759Zm-.87398-.73447c-.19947-.19832-.3436-.38049.00922-.12337.13606.00576-.30209-.41508.03228-.13375.35282.06457.1741.57766-.04151.25712Zm.11991-.30324c-.57881-.5154.72755.26981.09455.0957,0,0-.09455-.0957-.09455-.0957Zm1.65919.96392c-.25136-.14989-.06687-1.05847.01845-.43699.24329-.0784-.01384.32054.16834.31708-.02767.25136-.10954.34245-.18679.11991Zm-1.54619-1.13341c-.37242-.51309,1.08153.52001.23867.13029-.08878-.02421-.19486-.03228-.23867-.13029Zm.05765-.19601c.22138-.04727.91665.38857.27788.12453-.07149-.07956-.22253-.04381-.27788-.12453Zm1.89901.94662c.02306-.44276.1326-.26404.00115.06342l-.00115-.06342Zm-1.73528-1.10113c.08993-.1326-.23983-.59726.04727-.16719.12453.09801.35859.16488.15104.20639.32746.28825-.0784.0784-.19832-.0392Zm1.44242-.23637c-.1153-.20293.14528-.89359.1741-.46466-.12107.33322-.03459.52001.04958.07264.15681-.35282-.03344.69411-.22368.39202Zm.47619,4.93605c.32976.08532.32746-.05073.02998-.09109-.16027-.14874-.66529-.3067-.21331-.01845.03113.07495.12568.07264.18333.10954Zm-1.16916-.77713c.18102.13606.68374.3828.25828.05189.14297-.16603-.27442-.25482-.13606-.36666-.35282-.21561-.27788-.19601-.03113-.18909-.42316-.18909.06111-.17526.03805-.27211-.16373-.03228-.81057-.28825-.43007.02075-.38741-.19717-.09224.07379-.20985.04497-.39664-.10838.35282.30209-.06226.19947.22714.17987.6111.46121.0957.19025-.06572.09801.37012.24674.47735.32054Zm4.1151,2.41326c.17411-.16834.00692.26865.28825-.04151.00346-.22138-.00807-.35282-.32284-.08302-.08648.04843-.12568.25251.03459.12453Zm-2.84448-1.82637c.19371.1718.88782.12568.23406.02075-.0957-.14297-.6134-.10838-.23406-.02075Zm-3.18347-2.13769c-.28018-.4001-.17411-.57997-.44506-.90742-.05189-.2502-.46466-.81749-.21331-.21677.22945.35167.29748.89589.65837,1.12419Zm6.78664,4.07705c.29402-.18909-.06803-.16027-.05304.0173l.05304-.0173Zm.47158.12799c.37703-.27211-.2283-.05189-.0784.05189l.0784-.05189ZM2.43784,6.82321c.27557.06226,1.10228.67912.61456.04266-.2502-.07379-.10031-.68489-.35513-.57651.17065.28595.14067.40701-.21907.22714-.45083-.22023-.25366.10838-.16488.19947-.11991.02883.16027.10492.12453.10723Zm-1.25678-.99274c.04958-.20408-.45544-1.12419-.23867-.46121.0784.13951.07033.4024.23867.46121Zm8.63261,4.7654c.27326-.05535.89589.13951.9962-.07264-.33207-.00807-1.14725-.23406-1.1853.05304l.07264.01153.11645.00807ZM1.30674,4.6567c.27557-.10838-.50156-.22368-.0565-.02075l.0565.02075Zm-.86015-.96161c-.04958-.28479-.04266-.78635.43353-.61686-.63531.12683.44045.78981.3044.26635.2675.01268.52232-.15796.3828.10147.52693-.05765.89128-.51424,1.39976-.45083.39664-.05304.82902-.09224,1.25563-.25136.35052-.02537.68835-.40355.49695-.62724-.4785-.04036-.98006.0196-1.50814.12453-.58573.12222-1.11842.35282-1.70992.45313-.57651.07725.1153.21331-.04958.24329-.30094.10377.35859.17526-.0392.28479-.24559-.04727-.50156-.13144-.39664-.38972-.55229.07149-1.03771.30094-.60072.86245,0,0,.03113,0,.03113,0Zm1.33058-.67797c.12914-.47735.69296.39202.21215.06342-.05765-.04381-.1522-.0784-.21215-.06342Zm.26289-.22714c.0173-.21907.54307.11645.08648.0784l-.08648-.0784Zm.40701-.18679c.19717-.23752,1.11727-.15104.44391-.02306-.17987-.13606-.31823.08071-.44391.02306Zm1.54273-.18679c.12453-.3263.48427-.13144.05765-.06572.00922.03459-.01268.16834-.05765.06572Zm8.01459,8.18409c.29748.00115.90166-.09224.25366-.09224-.10146.01499-.5915.01268-.25366.09224ZM1.75641,4.09057c.24098-.01614.37704-.26519-.04727-.25136-.65606-.06803.57881.22484-.08417.14067-.08878.0588.12568.12683.13144.11069Zm-.33783-1.90132c.43007-.14643,1.01696-.31016,1.21989.07149-.20639-.2479-.08302-.49349.11184-.12914.27557.36781.41393-.16719.23406-.29056.20408.25366.43699.37358.13721.01614.3263-.39202-.65261.05189-.87514.04727-.10608.04727-1.10459.25366-.82786.28479Zm.25251-.48196c.24559-.18448.84746.11069.46121-.18333-.03805-.03459-.84746.22253-.46121.18333Zm.89358.0369c.2871.00692-.12337-.38511.21792-.20754-.0565-.18333-.39779-.21792-.56498-.29056-.09455.16719.1914.50041.34706.4981Zm-.37242-.72409c.46236-.06111-.11761-.19832-.09339-.00461l.09339.00461Zm-.68143-.53269c-.32515-.42546.61225.07149.28134-.37358-.27788-.22138-.54538.24905-.28134.37358Zm4.17506,2.24838c.14874-.26404-.61571-.35628-.10031-.09339.04843.01614.0369.11184.10031.09339Z"/>
  </g>
</svg>