<?xml version="1.0" encoding="UTF-8"?>
<svg id="Layer_2" data-name="Layer 2" xmlns="http://www.w3.org/2000/svg" viewBox="0 0 27.73441 27.73441">
  <defs>
    <style>
      .cls-1 {
        fill: #fff;
      }

      .cls-2 {
        fill: none;
        stroke: #fff;
        stroke-miterlimit: 10;
      }
    </style>
  </defs>
  <g id="Contact_Modal" data-name="Contact Modal">
    <g>
      <circle class="cls-2" cx="13.8672" cy="13.8672" r="13.3672"/>
      <path class="cls-1" d="m8.62264,13.57105c.01368-.0904.03085-.18043.04044-.27126.04121-.39053.1403-.76821.27458-1.13471.16618-.45357.39289-.87888.67609-1.27073.23836-.3298.51624-.62407.8226-.89405.35515-.31297.74579-.56975,1.17058-.77234.41242-.19669.84633-.32986,1.29636-.4203.43272-.08696.86864-.09734,1.30241-.07333.62927.03483,1.23659.18399,1.81337.44865.45542.20897.87303.47307,1.25363.79951.34215.29346.64534.62143.90245.99033.31264.44856.56106.93138.70439,1.46077.07602.28077.1336.56756.18097.85468.03167.19197.03546.38914.04299.58432.00671.17391.01531.34963-.00147.52217-.03505.36028-.09203.71703-.19314,1.06699-.16936.58612-.43321,1.1252-.78991,1.61729-.22826.3149-.4891.60144-.78252.86085-.32384.2863-.67569.53065-1.05471.73094-.25168.133-.52477.22733-.79274.32693-.14414.05358-.2906-.05914-.3029-.21511-.00429-.05438-.00661-.10903-.00709-.16358-.00452-.51138.00146-1.02312-.01644-1.53402-.00998-.28491-.11735-.54382-.33393-.76866.08633-.01387.1588-.02728.23177-.03693.35389-.04678.69378-.13931,1.01282-.30293.35532-.18222.63961-.44292.82705-.79427.1321-.24762.23238-.5117.25593-.79719.02073-.25138.06356-.50335.05712-.75405-.01154-.4491-.14468-.86412-.44197-1.2133-.0674-.07917-.08531-.14763-.05123-.25816.08914-.28905.0837-.58758.01516-.88258-.02464-.10605-.05659-.21096-.09434-.31301-.00978-.02643-.05271-.05462-.08264-.05732-.21457-.01934-.4196.02708-.61063.12117-.23978.11809-.48062.23666-.70767.37664-.08975.05533-.1557.0142-.2282.00532-.26365-.0323-.52499-.08465-.78896-.1129-.19525-.0209-.39524-.03681-.58959-.01815-.33439.0321-.66807.08256-.99759.14786-.09971.01976-.15132-.03044-.21694-.06232-.2529-.12286-.49812-.2621-.7539-.37828-.15845-.07197-.33395-.09589-.50999-.07938-.02469.00232-.05871.03047-.06785.05449-.11897.31281-.14396.63931-.12333.96944.00588.09411.03085.19086.06712.27806.02996.07202.00955.11852-.03335.16623-.23447.26079-.37558.57147-.44156.90917-.05739.2937-.04199.59321-.00994.89336.03512.32892.11585.64252.25661.93778.0693.14537.16881.28057.27405.40382.34544.40455.80618.60722,1.31396.71738.16237.03522.32743.05806.50095.08825-.04196.05693-.09177.10528-.11815.16413-.06275.14003-.11897.28348-.16866.42868-.02497.07298-.05008.11992-.1348.14794-.18287.0605-.36457.10279-.55846.09672-.21436-.00671-.41029-.07191-.55882-.2207-.14467-.14492-.26057-.31836-.39106-.47767-.20624-.2518-.45422-.4267-.79747-.40839-.05826.00311-.11502.03419-.17524.05323.05135.14935.16002.22031.26438.2875.22059.14204.35967.34761.46015.57943.14781.34101.32939.64499.69034.80309.27533.1206.55777.14703.85176.10195.0962-.01475.19434-.01685.30573-.02589,0,.09888,0,.19315,0,.28741,0,.19829-.00606.39682.00169.5948.00818.20897-.20895.30533-.3516.25799-.51668-.17146-.99586-.42149-1.43382-.74175-.23332-.17062-.45137-.36663-.6552-.57213-.39844-.40171-.71863-.86276-.96817-1.37153-.21231-.43287-.36057-.88735-.44785-1.36103-.02896-.15715-.04215-.31719-.06379-.47575-.00191-.01398-.01299-.02671-.0198-.04002,0-.28719,0-.57437,0-.86156Z"/>
    </g>
  </g>
</svg>