<?xml version="1.0" encoding="UTF-8"?>
<svg id="Layer_2" data-name="Layer 2" xmlns="http://www.w3.org/2000/svg" viewBox="0 0 9.1889 8.85207">
  <defs>
    <style>
      .cls-1 {
        fill: #ff4800;
      }
    </style>
  </defs>
  <g id="Skills_Modal" data-name="Skills Modal">
    <path class="cls-1" d="m.58353,2.07896c-.81354,1.16923-.71226,2.69061-.0908,3.93309.01475.0298.03024.05909.04551.08837l.02906.05599.01815.03223.03238.05798c.01933.03401.03909.06786.05931.10172l.03386.05577c.02242.03622.04536.07199.06882.1077l.02936.04529c.03238.04832.0655.09656.09973.14391l.00288.00369.01682.02272c.02958.04079.06004.08107.09088.1209l.03423.04352c.02751.0346.05547.06897.08394.1032l.03209.03836c.03828.04517.07728.08973.11699.13366l.00243.00243.0045.00502c.03903.04235.07867.08413.11891.12532l.03814.03843c.0312.03142.06292.06233.09493.09309l.03887.03688c.04278.04035.08601.07989.13012.11854l.00207.00162.02265.01933c.03887.03364.07841.06705.11824.0998l.04898.03902c.03253.02611.06543.05178.09855.07701l.05267.04005c.03659.02692.0734.0534.11057.0793l.04028.02855.01106.00789c.03526.02427.07133.04765.1074.07103l.04647.03098c.05532.03496.11138.06956.16811.10297l.04647.02619c.04168.02405.08365.04765.12614.07074.02301.01239.04662.02412.06978.036.03002.01571.05982.03164.09036.04691l.02088.01011.03696.01785c.04728.02257.09493.04477.1431.06617l.03024.01357c.05521.02415.11087.0473.16693.06941l.04064.01601c.05193.01999.1046.03976.15749.05835l.01977.00686c.05805.02029.11662.03909.17563.05746l.04241.01269c.06004.01807.11942.03969.18131.05112,3.93449.7175,5.07739-2.36435,5.07739-2.36435-.95989,1.25052-2.66369,1.58039-4.27801,1.21312-.06115-.01379-.12046-.0329-.18013-.05053l-.04492-.01365c-.05815-.01782-.11599-.03663-.17349-.05643l-.02383-.00863c-.05128-.01813-.10228-.03704-.15299-.05672l-.04293-.01689c-.05547-.02191-.11065-.04477-.16516-.06867l-.03297-.01461c-.04669-.02109-.09314-.0427-.13934-.06484l-.04028-.01933c-.03622-.01763-.07207-.03637-.10777-.05481-.0239-.01261-.04824-.02449-.07192-.03762-.04346-.02341-.08652-.04755-.12916-.07244l-.04359-.02434c-.05662-.03342-.11269-.06778-.16818-.10305l-.04536-.03024c-.04034-.02587-.08025-.05241-.11972-.07959l-.0385-.02707c-.03801-.02687-.07573-.05414-.11315-.0818l-.05009-.03791c-.03439-.02614-.06842-.05275-.10209-.07981l-.04551-.03651c-.04287-.03515-.08527-.07088-.12717-.10718l-.01394-.01173c-.04515-.03984-.0897-.08034-.13366-.12149l-.03769-.03622c-.03253-.03098-.06454-.06218-.09604-.0942l-.03762-.03755c-.03997-.0409-.07927-.08246-.11787-.12466l-.00583-.0062c-.04068-.04461-.08054-.08996-.11957-.13602l-.03128-.03718c-.02916-.03508-.05786-.07054-.08608-.10637l-.0315-.03924c-.03375-.04363-.06687-.08775-.09936-.13233-.89623-1.22256-1.21828-2.90866-.50196-4.29335m1.89049-.17954c-.58841.84666-.5564,1.98012-.09744,2.87554.07681.15052.16376.29566.26024.4344.08815.12636.18588.27669.30287.37819.04278.04686.08681.09256.13204.13705l.03482.0343c.04393.04283.08889.08459.13484.12525l.00546.00472.00133.00133c.0514.04476.10391.08822.15749.13034l.03578.02788c.05387.0415.10879.08162.16471.12031l.00479.00361c.02478.01711.05001.03305.07517.04957l.03563.02353c.04013.02574.08077.05082.12208.07487l.01733.01003c.03563.02051.0717.04072.10792.06034l.03843.01999c.02501.01306.05001.02641.07546.03909l.01143.00516c.05186.02552.10415.05016.15756.0734l.03482.01431c.04271.01815.08586.03585.12909.05237l.05532.02029c.03932.01461.07878.02788.11854.04123l.05363.01719c.05658.01756.11249.03976.17143.04957,3.03782.50329,3.73916-1.83569,3.73916-1.83569-.63216.91047-1.85649,1.34494-3.16292,1.00577-.05775-.01519-.11514-.03176-.17209-.04972l-.05171-.01674c-.04036-.01306-.08047-.02688-.12031-.04146l-.05429-.02021c-.04347-.01668-.08665-.03409-.12953-.05222l-.03489-.01475c-.05342-.02325-.10625-.04782-.15844-.07369-.02678-.01306-.05311-.02685-.07952-.04042l-.04588-.0236c-.03384-.01834-.06736-.03728-.10054-.0568l-.02405-.01365c-.04109-.02396-.08169-.04875-.12178-.07435l-.03673-.02449c-.02646-.01711-.05275-.0345-.07885-.05215-.05569-.03871-.11043-.07875-.1642-.12009l-.03696-.02914c-.57182-.45143-1.02517-1.06854-1.24063-1.76819-.22586-.72554-.17718-1.54004.21414-2.20111m1.64331-.05717c-.34684.51045-.38092,1.14437-.14023,1.70808.25382.59845.77386,1.06781,1.38086,1.2905.02501.00922.05009.01748.07539.02611l.03327.01055c.03578.01121.07126.02427.10821.03128,1.67739.32412,2.13237-.86075,2.25341-1.0352-.39847.57381-1.06825.71153-1.89005.51207-.06491-.01571-.13624-.03917-.19879-.06137-.08036-.02855-.15917-.06127-.23612-.09803-.146-.07029-.28467-.1549-.41396-.25257-.73535-.55802-1.19217-1.62236-.71234-2.48916"/>
  </g>
</svg>