<?xml version="1.0" encoding="UTF-8"?>
<svg id="Layer_2" data-name="Layer 2" xmlns="http://www.w3.org/2000/svg" viewBox="0 0 27.73441 27.73441">
  <defs>
    <style>
      .cls-1 {
        fill: #fff;
      }

      .cls-2 {
        fill: #404355;
      }

      .cls-3 {
        fill: none;
        stroke: #fff;
        stroke-miterlimit: 10;
      }
    </style>
  </defs>
  <g id="Contact_Modal" data-name="Contact Modal">
    <g>
      <circle class="cls-3" cx="13.8672" cy="13.8672" r="13.3672"/>
      <g>
        <path class="cls-1" d="m8.73729,9.47223c0-.40566.33962-.73494.75827-.73494h8.74329c.41881,0,.75826.32928.75826.73494v8.79006c0,.40578-.33946.73482-.75826.73482h-8.74329c-.41861,0-.75827-.329-.75827-.7347v-8.7903.00012Z"/>
        <path class="cls-2" d="m11.85516,17.3234v-4.619h-1.53529v4.619h1.53545-.00016Zm-.76732-5.24954c.53527,0,.86852-.35469.86852-.79794-.01002-.45336-.33324-.79814-.85834-.79814-.52546,0-.86864.34479-.86864.7981,0,.44326.33312.79794.8484.79794h.00994l.00012.00004Zm1.61712,5.24954h1.53517v-2.57918c0-.13787.01002-.27609.05058-.37456.11093-.27593.36354-.56157.78776-.56157.55539,0,.7777.42354.7777,1.04454v2.47077h1.53513v-2.6484c0-1.4187-.7573-2.0789-1.76737-2.0789-.82812,0-1.19182.46285-1.39389.7781h.01022v-.66965h-1.53521c.02004.43332-.00012,4.619-.00012,4.619l.00004-.00016Z"/>
      </g>
    </g>
  </g>
</svg>