<?xml version="1.0" encoding="UTF-8"?>
<svg id="Layer_2" data-name="Layer 2" xmlns="http://www.w3.org/2000/svg" viewBox="0 0 12.19955 13.78651">
  <defs>
    <style>
      .cls-1 {
        fill: #83cd29;
      }
    </style>
  </defs>
  <g id="Skills_Modal" data-name="Skills Modal">
    <path class="cls-1" d="m11.71738,3.05479L6.68968.13545c-.31707-.1806-.72992-.1806-1.0495,0L.55878,3.05479c-.32722.18824-.55878.54202-.55878.92044v5.83093c0,.37841.23761.73231.56483.92158l1.34252.76253c.64167.31605.86845.31605,1.16044.31605.95008,0,1.49279-.57452,1.49279-1.57659v-5.75659c0-.08129-.0423-.20226-.12211-.20226h-.6411c-.08118,0-.26292.12097-.26292.20215v5.75659c0,.4442-.40179.88623-1.15269.51079l-1.38721-.79958c-.04834-.02622-.08243-.07901-.08243-.13465V3.97523c0-.05495.06328-.11014.11196-.1383L6.08906.9226c.04732-.02679.11686-.02679.16407,0l5.00318,2.91364c.04789.02885.03101.08232.03101.13898v5.83093c0,.05564.02086.1098-.02645.13659l-5.02644,2.91603c-.0431.02588-.09657.02588-.14377,0l-1.28916-.76948c-.03888-.02257-.08505-.03067-.12234-.00981-.35869.20329-.42482.23031-.76127.34695-.08277.02885-.20488.0789.04675.21993l1.68719.99808c.16108.09304.34381.14203.52983.14206.18721,0,.37055-.04857.53211-.14206l5.00352-2.91672c.32722-.19063.48228-.54316.48228-.92158V3.97523c0-.37841-.15506-.73129-.48217-.92044Zm-3.97466,5.82739c-1.33693,0-1.63143-.36884-1.7296-1.03366-.0114-.0716-.07217-.15723-.14503-.15723h-.65342c-.08084,0-.14582.09805-.14582.17855,0,.85123.46278,1.88261,2.67398,1.88261,1.60065,0,2.51835-.62195,2.51835-1.72264,0-1.09135-.73733-1.37775-2.28964-1.5832-1.56907-.20739-1.72846-.31217-1.72846-.67975,0-.30305.13499-.70723,1.2968-.70723,1.0381,0,1.42073.22278,1.57819.92249.01345.06579.07354.11299.14138.11299h.65604c.04036,0,.0789-.0163.10717-.04515.02736-.03101.04184-.06989.03819-.11162-.10159-1.2049-.90208-1.76643-2.52109-1.76643-1.44012,0-2.29922.60815-2.29922,1.62756,0,1.10571.85477,1.41127,2.23719,1.54797,1.65378.16213,1.78239.40384,1.78239.72912,0,.56494-.45355.80563-1.51742.80563Z"/>
  </g>
</svg>