<?xml version="1.0" encoding="UTF-8"?>
<svg id="Layer_2" data-name="Layer 2" xmlns="http://www.w3.org/2000/svg" viewBox="0 0 13.76014 14.18588">
  <defs>
    <style>
      .cls-1 {
        fill: #f8fafb;
      }

      .cls-2 {
        fill: #010101;
      }

      .cls-3 {
        fill: #fcfdfd;
      }

      .cls-4 {
        fill: #fefeff;
      }

      .cls-5 {
        fill: #fdfefe;
      }

      .cls-6 {
        fill: #306593;
      }

      .cls-7 {
        fill: #306694;
      }

      .cls-8 {
        fill: #306693;
      }

      .cls-9 {
        fill: #2f6593;
      }

      .cls-10 {
        fill: #386c98;
      }
    </style>
  </defs>
  <g id="Skills_Modal" data-name="Skills Modal">
    <g id="Zpz0om.tif">
      <g>
        <path class="cls-2" d="m13.76014,8.85758c-.05163.09497-.09618.19468-.15619.28401-.18711.27854-.45706.46337-.74188.626-.4398.25113-.9193.3659-1.42203.39272-.18655.00995-.37314.01899-.58525.02974-.00508.08402-.01174.19095-.01799.2979-.04306.7369-.08692,1.47337-.34722,2.17591-.2676.72225-.7638,1.18475-1.51545,1.38235-.31277.08222-.62215.1542-.94669.13714-.30786-.01618-.57812-.12676-.82184-.31619-.38458-.29891-.51979-.73592-.64775-1.17141-.10249-.34881-.14399-.70997-.15143-1.07615-.00726-.35724-.04021-.71396-.06227-1.07738-.86971.29791-1.70475.33169-2.46344-.31972-.24641.19926-.52845.33172-.8755.31817-.33159-.01295-.5952-.15802-.82507-.37169-.4146-.38539-.69371-.8673-.89863-1.38669-.23021-.58347-.45224-1.17222-.63525-1.77168-.17217-.56399-.29558-1.14337-.42752-1.71894-.08144-.35526-.16574-.71355-.19929-1.07507-.03418-.3684-.01466-.74259-.00615-1.11395.01099-.47951.13247-.93347.34266-1.36483.28854-.59217.72969-1.02115,1.34074-1.27346.5387-.22244,1.10445-.29584,1.67787-.25523.425.0301.84756.11016,1.26773.18699.24175.0442.47633.1272.71487.18993.02516.00662.05948.00208.0825-.01035.36018-.19438.7367-.33406,1.14805-.37471.46733-.04617.93114-.03764,1.39758.02383.15828.02086.32703-.02687.48964-.05203.28662-.04435.57226-.09506.85806-.14452.01987-.00344.03771-.01857.0565-.02826.33769,0,.67537,0,1.01306,0,.15349.02897.30757.05514.46037.08741.50396.10645.98417.27576,1.42354.54957.42706.26614.8001.59488,1.09341,1.00356.24634.34324.27145.75517.28817,1.15773.00978.23533-.02113.47464-.05541.70898-.05215.35644-.0999.71626-.19171,1.06349-.12681.47963-.26464.96022-.44932,1.41968-.22589.56201-.50248,1.10382-.76277,1.6517-.08782.18485-.19277.36155-.30759.57486.2254-.03008.41707-.05769.60927-.08074.18769-.0225.37639-.05995.56385-.05567.28556.00652.51464.12659.62384.41327.02048.05376.04127.10741.06192.16111,0,.06754,0,.13508,0,.20262Zm-2.45208-.4252c.10663-.17926.21316-.33861.30007-.50803.29628-.57755.60742-1.14892.8717-1.74104.28005-.62746.48959-1.28382.62825-1.95903.0631-.30726.12405-.61675.1548-.92831.02547-.25806.02095-.52191-.00013-.78076-.01494-.18343-.05253-.37511-.12799-.54133-.13962-.30755-.39217-.52863-.64687-.74565-.30401-.25904-.64289-.45154-1.01444-.59243-.63114-.23933-1.28231-.3111-1.95374-.26284-.35851.02577-.71022.07228-1.0551.17406-.11354.03351-.23922.09145-.34617.07061-.52729-.10278-1.05622-.13928-1.58708-.064-.34316.04866-.66708.16659-.96512.35379-.06081.03819-.16664.04532-.23663.02183-.56485-.18959-1.14313-.33057-1.73494-.37107-.47193-.03229-.94914-.03544-1.41778.10026-.35668.10328-.68462.25084-.95836.49745-.59427.53537-.80319,1.24307-.85717,2.01025-.01655.23521-.01464.47334.00062.70873.01737.26797.03882.53866.09435.80057.13042.61515.2719,1.22841.4279,1.83757.20471.79934.45811,1.5831.82543,2.32565.21006.42464.42774.84746.82299,1.13255.35705.25753.624.26654.94758.04934.22086-.14825.39412-.37115.57711-.57124.27625-.30206.54078-.61482.81545-.91836.02706-.02991.09614-.04805.13531-.03647.24264.07176.4823.15359.72521.23282-.01653.0216-.05029.05947-.07707.10175-.16038.25319-.38778.38713-.68484.43988-.21693.03852-.42985.11586-.6353.19881-.25887.10452-.30586.40581-.02957.60862.29524.21672.63694.26709.98085.28104.40442.01641.78642-.09488,1.13029-.31577.07344-.04717.13787-.10836.22688-.1794.00436.07275.00842.11381.00903.15493.00539.3637.0045.7276.01676,1.09106.01173.34764.04119.69466.05516,1.04227.01681.41788.13721.80014.37932,1.14087.22339.31438.52884.50382.91342.54245.28967.0291.57789-.00709.8589-.08461.63491-.17514,1.14098-.51678,1.29893-1.18845.13171-.56009.19857-1.13599.28205-1.70666.05126-.35047.07777-.70451.12243-1.05606.00331-.02602.0698-.06983.09625-.06314.29128.07359.58191.05229.87675.02495.5004-.04641.95749-.19718,1.36471-.49592.16881-.12384.33174-.24865.4121-.45299.05958-.15152.00783-.30932-.13183-.35073-.07995-.02371-.16839-.04253-.24966-.03347-.22362.02492-.44441.08135-.66826.09645-.3186.02149-.64424.07323-.97255-.09078Z"/>
        <path class="cls-4" d="m11.30806,8.43238c.32831.16401.65395.11227.97255.09078.22386-.0151.44465-.07154.66826-.09645.08127-.00905.16971.00976.24966.03347.13966.04141.19142.19922.13183.35073-.08036.20434-.2433.32915-.4121.45299-.40722.29874-.8643.44951-1.36471.49592-.29484.02734-.58547.04864-.87675-.02495-.02645-.00668-.09295.03712-.09625.06314-.04465.35155-.07116.7056-.12243,1.05606-.08347.57067-.15034,1.14657-.28205,1.70666-.15795.67167-.66402,1.01331-1.29893,1.18845-.28101.07752-.56924.1137-.8589.08461-.38458-.03863-.69004-.22808-.91342-.54245-.24211-.34073-.36251-.72299-.37932-1.14087-.01398-.3476-.04343-.69462-.05516-1.04227-.01227-.36346-.01137-.72736-.01676-1.09106-.00061-.04112-.00467-.08218-.00903-.15493-.08901.07104-.15344.13223-.22688.1794-.34388.22089-.72587.33218-1.13029.31577-.34392-.01396-.68561-.06432-.98085-.28104-.27629-.20281-.2293-.5041.02957-.60862.20545-.08295.41837-.16028.6353-.19881.29706-.05275.52445-.18669.68484-.43988.02678-.04228.06054-.08015.07707-.10175-.24291-.07922-.48257-.16106-.72521-.23282-.03917-.01158-.10824.00656-.13531.03647-.27467.30354-.5392.6163-.81545.91836-.18299.20009-.35625.42299-.57711.57124-.32358.2172-.59053.20819-.94758-.04934-.39525-.28509-.61293-.7079-.82299-1.13255-.36732-.74255-.62072-1.52631-.82543-2.32565-.156-.60916-.29748-1.22242-.4279-1.83757-.05553-.26191-.07698-.5326-.09435-.80057-.01526-.23538-.01717-.47352-.00062-.70873.05398-.76718.2629-1.47488.85717-2.01025.27374-.24661.60169-.39417.95836-.49745.46864-.1357.94585-.13255,1.41778-.10026.59181.0405,1.17009.18148,1.73494.37107.06999.02349.17582.01636.23663-.02183.29804-.1872.62196-.30513.96512-.35379.53086-.07528,1.05979-.03878,1.58708.064.10695.02085.23263-.0371.34617-.07061.34488-.10178.69659-.14829,1.0551-.17406.67143-.04826,1.3226.02352,1.95374.26284.37155.14089.71044.33339,1.01444.59243.2547.21703.50726.4381.64687.74565.07546.16622.11306.3579.12799.54133.02108.25885.0256.52271.00013.78076-.03076.31156-.09171.62105-.1548.92831-.13865.67521-.3482,1.33157-.62825,1.95903-.26428.59212-.57542,1.16349-.8717,1.74104-.08691.16942-.19343.32877-.30007.50803Zm-.37178-4.73551c-.0218-.0712-.03377-.1355-.0605-.19292-.08026-.17236-.15792-.34678-.25151-.51194-.41582-.73377-.97934-1.32484-1.7372-1.70538-.71236-.3577-1.47008-.47017-2.26377-.36327-.628.08458-1.11604.39163-1.49474.88603-.45485.5938-.63857,1.29002-.74577,2.01349-.01246.08406-.01926.16896-.03148.27853.08202-.0349.13441-.05383.18378-.07873.41298-.20823.85144-.29757,1.31048-.25604.19831.01794.38254.09169.53303.23887.19679.19247.2774.42828.32768.69332.10139.53447.16918,1.06586.11245,1.61285-.03708.35754-.13386.69284-.26553,1.02209-.13874.34694-.28018.6928-.42647,1.05402.06546.00307.10269.00606.13995.00637.41639.0035.74462.33175.74925.75099.00259.23446.00037.469.00551.70339.01621.73883.02733,1.4779.05645,2.21624.01096.27795.07181.55227.20551.8039.21383.40245.53301.65136,1.00226.61344.24563-.01985.49051-.09467.72703-.17147.42829-.13908.71987-.43249.82459-.87201.08507-.35704.1345-.72322.18692-1.08719.04863-.33769.08263-.67758.11881-1.01696.04076-.3823.07875-.76492.11412-1.14776.0239-.25866.08221-.50257.30196-.66793.08918-.0671.19667-.10987.26306-.14591-.1774-.30662-.36199-.6092-.53032-.92057-.23674-.43793-.4772-.87506-.68683-1.32612-.21059-.45313-.37913-.92661-.35756-1.43855.01387-.32918.14603-.60535.42924-.7977.24247-.16468.52084-.19026.7984-.21078.14496-.01071.29224.01009.46122.01768ZM5.11279,1.25613c-.51398-.18-1.02295-.29233-1.54088-.3226-.46015-.02689-.92604-.04135-1.37906.10495-.48172.15557-.86938.42427-1.11134.87598-.33882.63254-.43108,1.31306-.343,2.01601.05926.47297.13625.94527.23624,1.41123.17095.79666.37778,1.58484.66004,2.35101.23574.63987.48068,1.27826.9276,1.80582.24842.29324.53656.44379.87833.08069.24927-.26484.48695-.5406.72909-.81213.15195-.1704.30258-.34197.43588-.49273-.16007-.22177-.32533-.41495-.45036-.63137-.26466-.45812-.26678-.96112-.20668-1.46994.04816-.40777.06486-.81391.03575-1.22721-.03996-.56732-.01418-1.13734.11836-1.69602.17552-.73981.45525-1.428,1.01004-1.99368Zm5.99778,6.80631c.16838-.29198.3375-.56689.48885-.85126.4022-.75565.72864-1.54383.97035-2.3652.20787-.70639.37255-1.42341.34436-2.16535-.00819-.21558-.04198-.46423-.15703-.63509-.30007-.44562-.72365-.77188-1.21458-.99308-.70717-.31863-1.45536-.37372-2.21746-.29777-.15953.0159-.31687.05384-.47522.08163.45254.22255.85573.4979,1.21254.8355.4753.44971.83034.98688,1.1124,1.57639.20006.41814.21404.84551.13095,1.29206-.04931.26499-.08885.53685-.08631.80518.00337.35585.0388.713.08451,1.06647.06659.51501.00385,1.00269-.24878,1.45944-.04305.07784-.03068.1277.05542.19107Zm-5.34358.2488c.14513-.37011.27298-.72233.42071-1.066.17281-.40203.27545-.81316.2826-1.2542.00677-.41713-.04657-.82569-.12338-1.23159-.02818-.14893-.08441-.30611-.17246-.42705-.14293-.19633-.37723-.23573-.60263-.21777-.40084.03194-.77409.16227-1.12068.37058-.07749.04657-.10063.09687-.0998.18277.00402.42005.00421.84019.00044,1.26024-.00119.13299-.00812.2677-.03083.39842-.0826.47546-.00765.91853.26618,1.31854.28557.41716.68054.64555,1.17986.66605Zm5.01546-.70666c.02071-.04877.04034-.0909.05673-.13425.19721-.5215.10584-1.05289.04568-1.58095-.04272-.37503-.0395-.74574.02106-1.1181.03633-.22335.05769-.44914.08615-.67682-.29464-.07307-.57145-.05745-.84274-.00765-.25869.04749-.47103.18873-.49999.47074-.02236.21769-.01689.44718.02704.66097.10616.5166.35923.97832.59896,1.44238.1613.31224.3324.61941.50711.94368Zm-6.26001,2.16833c.31963.20449.66146.24772,1.00178.20637.43837-.05325.81025-.25423,1.07258-.62802.08679-.12367.07263-.25336.01226-.36932-.05886-.11305-.14694-.21453-.2992-.21157-.17778.00345-.24267.15547-.33383.26312-.16948.20014-.3184.41781-.59203.4929-.28164.0773-.56168.16044-.86157.24653Zm8.35417-.93711c-.31173.02845-.59306.0537-.87429.07992-.30153.02812-.58815-.01596-.85757-.16241-.04513-.02453-.10992-.03725-.15897-.02612-.26887.06099-.40035.26621-.34816.542.00697.0368.05055.08243.08699.09462.07505.0251.15695.04281.23564.04144.23903-.00417.47929-.00606.71649-.03225.4435-.04898.82919-.23953,1.19988-.53719Z"/>
        <path class="cls-9" d="m10.93628,3.69687c-.16898-.00759-.31627-.02839-.46122-.01768-.27756.02052-.55593.0461-.7984.21078-.28322.19236-.41537.46852-.42924.7977-.02157.51194.14697.98542.35756,1.43855.20963.45106.45008.88819.68683,1.32612.16833.31137.35292.61395.53032.92057-.06639.03605-.17388.07881-.26306.14591-.21975.16536-.27806.40927-.30196.66793-.03537.38284-.07336.76546-.11412,1.14776-.03618.33938-.07018.67927-.11881,1.01696-.05242.36397-.10185.73015-.18692,1.08719-.10472.43952-.39629.73293-.82459.87201-.23652.0768-.4814.15162-.72703.17147-.46924.03792-.78843-.21099-1.00226-.61344-.13369-.25163-.19454-.52596-.20551-.8039-.02912-.73834-.04025-1.47742-.05645-2.21624-.00514-.23439-.00292-.46894-.00551-.70339-.00463-.41924-.33286-.74749-.74925-.75099-.03726-.00031-.07449-.0033-.13995-.00637.14629-.36122.28773-.70708.42647-1.05402.13167-.32925.22845-.66455.26553-1.02209.05673-.54698-.01106-1.07838-.11245-1.61285-.05028-.26504-.13089-.50086-.32768-.69332-.15049-.14718-.33472-.22093-.53303-.23887-.45905-.04153-.8975.0478-1.31048.25604-.04937.02489-.10175.04382-.18378.07873.01222-.10957.01902-.19447.03148-.27853.1072-.72347.29092-1.41969.74577-2.01349.37871-.4944.86675-.80145,1.49474-.88603.79369-.1069,1.55141.00557,2.26377.36327.75785.38054,1.32138.97162,1.7372,1.70538.09359.16516.17125.33958.25151.51194.02674.05742.03871.12172.0605.19292Z"/>
        <path class="cls-9" d="m5.11279,1.25613c-.55479.56568-.83453,1.25387-1.01004,1.99368-.13254.55868-.15832,1.1287-.11836,1.69602.02911.4133.01241.81944-.03575,1.22721-.06009.50882-.05797,1.01182.20668,1.46994.12503.21642.29029.4096.45036.63137-.1333.15077-.28393.32234-.43588.49273-.24214.27153-.47982.5473-.72909.81213-.34177.36311-.62991.21255-.87833-.08069-.44693-.52756-.69187-1.16595-.9276-1.80582-.28226-.76616-.48908-1.55434-.66004-2.35101-.09999-.46596-.17698-.93826-.23624-1.41123-.08808-.70295.00418-1.38347.343-2.01601.24196-.45171.62961-.72041,1.11134-.87598.45302-.1463.91891-.13185,1.37906-.10495.51793.03027,1.0269.1426,1.54088.3226Z"/>
        <path class="cls-9" d="m11.11057,8.06244c-.08609-.06338-.09847-.11324-.05542-.19107.25262-.45675.31537-.94443.24878-1.45944-.04571-.35348-.08114-.71062-.08451-1.06647-.00254-.26833.037-.54019.08631-.80518.0831-.44655.06911-.87392-.13095-1.29206-.28206-.58952-.6371-1.12669-1.1124-1.57639-.35682-.3376-.76-.61295-1.21254-.8355.15835-.02779.31569-.06573.47522-.08163.7621-.07595,1.51028-.02086,2.21746.29777.49093.2212.91451.54746,1.21458.99308.11505.17086.14884.41951.15703.63509.02819.74194-.13649,1.45897-.34436,2.16535-.2417.82137-.56815,1.60954-.97035,2.3652-.15136.28437-.32047.55928-.48885.85126Z"/>
        <path class="cls-9" d="m5.767,8.31124c-.49933-.0205-.8943-.24889-1.17986-.66605-.27383-.40002-.34878-.84309-.26618-1.31854.02271-.13072.02964-.26543.03083-.39842.00377-.42006.00359-.84019-.00044-1.26024-.00082-.0859.02231-.13619.0998-.18277.34658-.20831.71984-.33865,1.12068-.37058.22539-.01796.4597.02144.60263.21777.08804.12094.14428.27813.17246.42705.07681.4059.13015.81446.12338,1.23159-.00716.44103-.10979.85217-.2826,1.2542-.14773.34367-.27557.6959-.42071,1.066Zm-.08213-3.96343l-.00618.02296c-.04318,0-.08656-.00273-.12949.0005-.14171.01064-.20474.12315-.11928.23661.19015.25246.35813.29339.61257.11536.12087-.08457.11199-.22368-.02204-.28297-.10496-.04643-.22322-.06276-.33558-.09246Z"/>
        <path class="cls-6" d="m10.78245,7.60458c-.17471-.32427-.34582-.63144-.50711-.94368-.23973-.46407-.4928-.92578-.59896-1.44238-.04393-.21379-.0494-.44328-.02704-.66097.02897-.28201.24131-.42325.49999-.47074.27128-.0498.5481-.06543.84274.00765-.02846.22768-.04982.45347-.08615.67682-.06056.37236-.06378.74306-.02106,1.1181.06016.52806.15153,1.05945-.04568,1.58095-.0164.04336-.03603.08548-.05673.13425Zm-.59955-2.93548c.19227-.02228.31046-.08605.38918-.21933.0486-.08228.02407-.13601-.05857-.16488-.18137-.06337-.3581-.03472-.51709.0615-.03457.02092-.05718.13884-.03386.16357.06783.07193.16175.11925.22034.15914Z"/>
        <path class="cls-7" d="m4.52244,9.7729c.29989-.08608.57993-.16923.86157-.24653.27362-.07509.42255-.29276.59203-.4929.09116-.10765.15604-.25967.33383-.26312.15226-.00296.24034.09853.2992.21157.06038.11596.07453.24565-.01226.36932-.26233.37379-.63421.57477-1.07258.62802-.34032.04134-.68215-.00188-1.00178-.20637Z"/>
        <path class="cls-8" d="m12.87661,8.83579c-.37069.29766-.75638.48821-1.19988.53719-.2372.02619-.47746.02808-.71649.03225-.07869.00138-.16059-.01634-.23564-.04144-.03644-.01219-.08003-.05781-.08699-.09462-.05219-.27579.0793-.48101.34816-.542.04906-.01113.11385.00159.15897.02612.26942.14645.55604.19053.85757.16241.28124-.02622.56256-.05147.87429-.07992Z"/>
        <path class="cls-1" d="m5.68487,4.34781c.11235.0297.23062.04604.33558.09246.13403.05929.14291.19839.02204.28297-.25444.17803-.42242.1371-.61257-.11536-.08545-.11345-.02242-.22597.11928-.23661.04293-.00322.08631-.0005.12949-.0005l.00618-.02296Zm-.23456.11876c.08051.27803.34839.37892.5414.22037.1007-.08272.09563-.1433-.02399-.20158-.16626-.08101-.33721-.0792-.51741-.01878Z"/>
        <path class="cls-5" d="m10.1829,4.6691c-.05859-.03989-.15251-.08721-.22034-.15914-.02332-.02473-.00071-.14265.03386-.16357.159-.09622.33572-.12488.51709-.0615.08264.02888.10717.0826.05857.16488-.07872.13328-.19691.19705-.38918.21933Z"/>
        <path class="cls-10" d="m5.45031,4.46657c.1802-.06041.35115-.06223.51741.01878.11961.05828.12468.11886.02399.20158-.193.15855-.46089.05766-.5414-.22037Zm.54993.11484c-.14899-.12772-.31655-.09385-.50167-.08595.19748.25002.32393.26819.50167.08595Z"/>
        <path class="cls-3" d="m6.00025,4.58141c-.17775.18224-.3042.16407-.50167-.08595.18513-.0079.35268-.04177.50167.08595Z"/>
      </g>
    </g>
  </g>
</svg>