<?xml version="1.0" encoding="UTF-8"?>
<svg id="Layer_2" data-name="Layer 2" xmlns="http://www.w3.org/2000/svg" viewBox="0 0 12.73202 12.73197">
  <defs>
    <style>
      .cls-1 {
        fill: #fff;
      }

      .cls-2 {
        fill: #f37036;
      }
    </style>
  </defs>
  <g id="Skills_Modal" data-name="Skills Modal">
    <g>
      <path class="cls-2" d="m11.40423,2.4752C9.25539-.30744,5.25734-.82114,2.4746,1.32811-.30774,3.47736-.82092,7.47541,1.32833,10.25774c2.14966,2.78223,6.14801,3.29511,8.92994,1.14545,2.78121-2.14925,3.29449-6.14607,1.14596-8.92799Z"/>
      <path class="cls-1" d="m9.14359,2.28011c-.21916.01751-.42696.10472-.59298.24885-.40287.34976-.47146.94948-.15796,1.38117.31306.43187.90431.55279,1.36178.27849h.00021v.0001l.016.0159c.07268-.04167.14031-.09158.20156-.14873.39264-.41537.38557-1.06715-.016-1.47389v-.00021l-.90717.90153-.016-.0159.90717-.90194c-.21241-.2048-.50247-.30863-.79659-.28516v-.00021Zm-1.19438,1.47574c-.43492-.00072-1.14504.49226-2.87896,2.22618l.00862.00882c-.00944-.00328-.01898-.00359-.01898-.00359l-.65278.64704c-.04248.04041-.04417.10761-.00376.15009.02547.02677.06302.03838.09915.03064l1.1195-.23879c.00494-.00464.00825-.01076.00944-.01744l.02482.02564-.38158.3785h-.01846l-2.26546,2.28331.72684.69997c.04172.0376.10301.04379.1514.01528.04869-.02823.07498-.08351.06616-.13909l-.10616-.46159c-.01357-.01903-.01357-.04457,0-.0636.99232-.47306,1.91512-1.0799,2.74264-1.80357l-.46518-.46538.00882-.00144-.27593-.27582.01764-.01785.01867.01908-.00964.00933.73207.74808v-.00031c1.40322-1.32875,2.39922-2.39686,2.14022-3.1157-.0118-.08596-.05173-.1656-.11355-.22648v.00041c-.0157-.0117-.03226-.02219-.04954-.03139-.00851-.00903-.016-.01826-.02503-.02708l-.00677.00677c-.01901-.01161-.03898-.02157-.0597-.02975l.02964-.02995c-.18422-.16412-.33644-.29993-.56416-.30054v.00021Zm-4.97425,5.50405l-.53041.53052v.00041c-.03905.02419-.058.07083-.04688.1154.01073.04453.04882.07716.09447.08093l1.29983.08975s-.81701-.81701-.81701-.81701Z"/>
      <path class="cls-2" d="m9.23303,2.19251c-.29771-.00037-.5836.11643-.79588.32516-.30847.31569-.40429.78238-.24515,1.19407-.48631-.20823-1.14422.15489-3.19069,2.20094-.00144.00314-.00271.00636-.0038.00964-.00418.0019-.00826.00402-.01221.00636l-.64714.65278c-.06369.06252-.07883.15942-.03723.23838.03677.06188.10312.10012.17509.10093l.03211-.02082.86409-.18433-.41338.41717c-.00241.00548-.00427.01118-.00554.01703l-2.02585,2.03088c-.00808.00679-.01476.01508-.01969.02441l-.52169.52211c-.05305.05599-.06953.13733-.04247.20956.02774.07174.09336.12186.16986.12976l1.29429.09027c.02208-.00776.04088-.02276.05334-.04257.02282-.03171.02282-.07445,0-.10617l-.00267-.00256c.02793-.01466.05254-.03491.07232-.05949.04209-.05463.05739-.12529.04165-.19243l-.10093-.42948c.96835-.46278,1.87565-1.0437,2.7012-1.72951.00801.00456.01656.0081.02544.01056.02605-.00195.05047-.01313.06893-.03159,1.38989-1.31603,2.20689-2.21787,2.20689-2.93384.00302-.09931-.01196-.19836-.04421-.29234.12525.05194.25887.08078.3944.08514l-.00154.00041c.18666-.00571.36912-.05675.53164-.14873.00014.00003.00027.00007.00041.0001.02104.0063.0437.00428.06329-.00564.07842-.04618.14991-.10323.21233-.16945.21368-.20966.3341-.49642.33419-.79577-.00006-.29934-.12044-.5861-.33409-.79577-.00378-.00343-.00783-.00655-.0121-.00933-.21115-.20274-.49258-.31589-.78531-.31572l.0001-.0001Zm-.00892.18176c.20729.00124.40849.07018.57298.19633l-.82757.8326c-.00284.00315-.00545.00651-.0078.01005-.01492.01509-.02366.03521-.02452.05642,0,.02595.01182.05049.03211.06667h.00021l.6257.6257c-.35054.15286-.75897.07495-1.02862-.19623-.26526-.26669-.34219-.66715-.20033-1.01457.14186-.34773.48005-.57493.85783-.57698Zm.73033.35204c.13531.16372.20909.36961.20853.58201-.00038.24883-.09956.48732-.27572.66304-.03532.03323-.07296.06391-.11263.0918l-.50497-.49718-.09878-.09878.02718-.02718.75628-.71392.0001.0002Zm-.03754.4301c-.01856-.00587-.03863-.00473-.05642.00318-.0176.00911-.03088.02482-.03693.0437-.006.01903-.00415.03967.00513.05734.03718.07816.02698.17063-.02636.23879-.01353.01305-.02081.03128-.02.05006.00041.01887.00718.03693.02.05047.01367.00522.02879.00522.04247,0,.02514.00627.05168-.0019.06893-.02123.08907-.10923.10761-.25985.0477-.38742v.00041c-.01-.01683-.02585-.02939-.04452-.03529Zm-1.97733.68961c.12379.00411.24292.04823.33952.12576-.10409.01498-.20055.06319-.275.13745l-2.33942,2.32896-.45912-.45912c1.21325-1.20751,1.95507-1.83824,2.41625-2.04493.09499-.05992.20549-.0906.31778-.08821v.0001Zm.40671.30362c.07855,0,.15391.03113.20956.08657.05993.05619.09278.13545.09016.21756-.00271.08174-.03932.15867-.10104.21233l-2.48743,2.16494-.26844-.26844,2.34762-2.32639c.05567-.0554.13102-.08649.20956-.08647v-.0001Zm.30711.68704c-.17335.68746-1.09211,1.61893-2.05016,2.52405l-.38742-.38701,2.43769-2.13704h-.0001Zm-3.58314,1.27798l.02811.0277.36034.36034-.98779.2113s.59934-.59934.59934-.59934Zm.59421.59904l.00041.00041.11981.12258c.0005.0029.00112.00577.00185.00862l.008.00123.02544.02605.08411.08616-.55236.0677.31285-.31285-.0001.0001Zm.39666.41809l.36701.36681c-.81154.67484-1.70209,1.24854-2.65207,1.70848-.0636.03028-.09696.10126-.0797.16956l.10616.46159c.00803.01111.00803.02612,0,.03723-.01208.01084-.03038.01084-.04247,0l-.62591-.63104,1.92922-1.95753.99785-.15509h-.0001Zm-3.07037,2.25049l.08914.0835.46077.46076-1.02739-.06647.47748-.47789v.0001Z"/>
    </g>
  </g>
</svg>