<?xml version="1.0" encoding="UTF-8"?>
<svg id="Layer_2" data-name="Layer 2" xmlns="http://www.w3.org/2000/svg" viewBox="0 0 15.72329 11.75947">
  <defs>
    <style>
      .cls-1 {
        fill: #cb6699;
        fill-rule: evenodd;
      }
    </style>
  </defs>
  <g id="Skills_Modal" data-name="Skills Modal">
    <path class="cls-1" d="m0,4.90356c0,.08804.02592.14614.04045.20262.09467.3673.29818.68251.53962.97004.34389.40976.76504.73962,1.19646,1.04981.37419.269.75602.53198,1.13172.79898.06449.04583.12548.09856.19549.15479-.06024.03256-.11033.06124-.16243.08766-.49579.25146-.9728.53336-1.41248.87487-.26499.20588-.52121.42466-.70217.71056-.29116.45985-.39423.94975-.1772,1.47285.06337.15278.16005.28478.29642.38233.04421.03156.0938.06287.14552.07514.13249.03118.26749.0516.40162.07627l.37983-.00025c.42003-.03744.80236-.18133,1.14787-.41978.54-.37269.90379-.87236,1.06021-1.51367.11371-.46611.11834-.93272-.01565-1.3967-.01282-.04298-.02762-.08536-.04433-.12698-.01628-.0417-.03544-.08228-.05798-.13425l.86109-.49516.0129.01102c-.01565.05122-.03231.10231-.04646.15403-.10231.37369-.17031.75389-.14589,1.14173.02605.41326.14139.8001.38333,1.14537.19561.27927.66172.28966.86961.00939.07376-.09956.14527-.20363.19899-.31471.14038-.28991.27037-.58496.4045-.878l.02342-.0536c-.00964.13876-.02091.26061-.02605.38258-.00801.19048.00313.37983.06825.56104.05573.15504.15053.27088.32811.29129.12147.0139.21828-.0417.30757-.11221.13833-.10931.25298-.24561.337-.40061.23806-.43718.48252-.87174.69829-1.31994.23343-.48477.43756-.98369.65433-1.47673l.03582-.08741c.05122.20125.08691.39836.15266.58496.07639.21652.17094.42792.27388.63342.04871.09705.04308.16005-.02442.24145-.28252.34063-.56016.68539-.83805,1.02978-.06149.07602-.12273.15341-.17395.23644-.03107.05243-.0515.11048-.06011.17082-.01791.11543.05855.2244.1732.24683.11134.02398.22551.03212.33913.02417.38784-.02855.73999-.16468,1.05132-.39535.40337-.2988.53286-.70655.43518-1.18982-.02642-.13112-.07314-.2586-.11859-.38496-.02041-.05698-.02179-.09693.0154-.15003.32247-.46048.59798-.949.8542-1.4488.01014-.01966.02054-.03932.03832-.06036.08303.43205.20801.84844.43192,1.22627-.11421.11008-.2273.20989-.32961.31984-.22529.2422-.42065.50518-.52259.8259-.04383.13825-.07752.27876-.05798.42641.03031.2293.21815.37832.44369.3261.48264-.11171.89929-.33913,1.20372-.742.20488-.27125.22354-.57381.13775-.89077-.02354-.08616-.05147-.17094-.08153-.26975.11909-.03694.23518-.08128.35528-.1087.62353-.14226,1.24029-.11747,1.84115.1077.35077.13149.63417.35152.80223.69766.20525.42316.09179.82465-.30707,1.09214-.03719.02492-.07977.04458-.11058.07577-.01995.02313-.02927.05357-.02567.0839.00263.0154.04333.03469.06675.03444.13112-.001.23744-.06975.3395-.14038.25572-.17695.44232-.41502.48252-.72847l.00789-.02354-.00964-.20413c-.00388-.01177.00288-.02342.002-.03231-.05435-.45647-.29818-.8105-.65283-1.08801-.41076-.32122-.89578-.45346-1.40873-.47438-.41602-.0179-.8315.04605-1.22288.18822-.11233.0407-.22366.08891-.33662.13437-.01515-.02743-.03143-.05372-.04483-.0809-.11596-.23744-.25647-.46436-.28753-.73661-.02204-.19336-.04909-.38646-.00313-.57769.04421-.18397.10181-.3648.15604-.54626.02793-.09342.00827-.14577-.0809-.18785-.03107-.01549-.06423-.02638-.09843-.03231-.21915-.03181-.4353-.01365-.64757.04809-.07514.02192-.12974.06399-.1464.14715-.00952.04771-.02893.09342-.04245.14051-.05548.19574-.0948.39523-.18447.5817-.22466.46774-.48114.91782-.74362,1.36465-.02843.04821-.05836.09555-.09417.15403-.09217-.19286-.19048-.36593-.22028-.5688-.03369-.22942-.06024-.45847-.00313-.68614.04245-.16981.09793-.3365.14903-.50406.02417-.07965.01302-.12147-.05911-.16343-.03644-.02116-.07764-.03995-.11872-.04609-.22472-.03423-.45432-.01545-.67049.05485-.068.02204-.10369.066-.12448.13613-.06111.20688-.11321.41877-.19899.61551-.34739.79647-.7048,1.58881-1.06184,2.38102-.07451.16543-.1618.3251-.24583.48615-.02129.04082-.05235.07677-.0789.11509-.02129-.02517-.02955-.04245-.02943-.05974.00063-.10181-.01152-.20663.00789-.30506.05961-.2977.12549-.5941.19761-.88902.05886-.2437.12736-.48515.19261-.72722.02192-.08103.02229-.15679-.03594-.22492-.09781-.11409-.30218-.13913-.42341-.05122l-.0536.03031.01039-.08641c.02555-.18522.03068-.36981-.02016-.55227-.06337-.22742-.22567-.35829-.4616-.35102-.10995.00338-.22542.02217-.32723.06224-.42817.16781-.7574.46498-1.03767.82252-.02598.0332-.05818.06102-.0948.0819-.36229.20087-.72572.39924-1.08901.59836l-.40437.22153c-.10845-.10344-.20701-.21076-.31884-.30181-.34151-.27851-.68852-.55014-1.03241-.82553-.30481-.24408-.60011-.49829-.82603-.82152-.16806-.24044-.27639-.50356-.28678-.80085-.01315-.37882.0943-.72496.28716-1.04718.24671-.41226.5832-.74312.95314-1.0428.39135-.31684.81463-.58583,1.25332-.83141.61376-.34351,1.24505-.64757,1.92193-.84832.69403-.20588,1.39821-.32372,2.12455-.24157.28553.03231.56279.09768.81738.23731.19499.10682.35491.24671.42929.46536.07339.21515.07113.43318.02029.6517-.10332.44257-.34564.80737-.65058,1.13334-.50017.53436-1.1103.89816-1.79719,1.13848-.39494.13836-.80586.22601-1.22288.26086-.34176.02868-.67637-.00163-.99997-.12047-.21427-.07877-.40087-.19924-.55089-.37407-.0268-.03131-.06111-.06525-.11108-.03594-.04897.0288-.05761.07539-.0412.1226.02743.07839.05272.16005.09543.23018.10732.17595.26386.30356.43618.41301.33099.21051.70092.28127,1.0845.29767.58208.02517,1.15-.06174,1.70991-.2179.79935-.22291,1.49439-.61664,2.05179-1.23779.46411-.51721.79559-1.10091.8666-1.80571.03469-.34401-.00225-.68101-.1633-.99484-.1747-.34-.45246-.59285-.78457-.76704-.48364-.25359-1.00561-.40124-1.54435-.40124h-.53975c-.65246,0-1.28325.18697-1.89638.41001-.46411.16894-.9192.36831-1.36101.58896-.96215.48076-1.85818,1.06046-2.59417,1.85756-.36668.39711-.67713.83529-.85571,1.35125-.0539.15404-.10033.3106-.13913.46912m3.48631,4.50996c-.0417.55841-.29479,1.01112-.70843,1.37779-.23268.20613-.49955.3529-.81037.4045-.11271.01866-.22805.02317-.33737-.02354-.15591-.06662-.19085-.205-.19386-.3524-.00463-.23493.07764-.44733.19048-.64945.14727-.26349.36317-.46436.59372-.65195.36317-.29567.75715-.54588,1.16064-.78207l.03043-.01252c.06237.23043.09205.45797.07476.68965Zm3.15057-2.42686c-.02943.17833-.06625.35678-.11834.5296-.18008.59823-.41138,1.17793-.66147,1.74986-.04621.10582-.11346.20237-.17194.30268-.00995.01542-.02186.02948-.03544.04183-.07238.07151-.14101.06775-.17758-.0258-.04258-.1087-.06875-.22504-.09129-.34013-.01515-.07727-.01152-.15842-.01628-.23756.00488-.56279.17658-1.07423.46786-1.55036.1201-.19636.25084-.38346.45058-.50769.06214-.03863.12937-.06839.19974-.08841.10645-.02993.17182.01929.15416.12598h0Zm2.14947,2.73856l.77255-.90204c.03218.33499-.53724,1.00373-.77255.90204Z"/>
  </g>
</svg>