<?xml version="1.0" encoding="UTF-8"?>
<svg id="Layer_2" data-name="Layer 2" xmlns="http://www.w3.org/2000/svg" viewBox="0 0 14.508 8.70435">
  <defs>
    <style>
      .cls-1 {
        fill: #38bdf8;
      }
    </style>
  </defs>
  <g id="Skills_Modal" data-name="Skills Modal">
    <path class="cls-1" d="m7.254,0c-1.93444,0-3.14302.96682-3.627,2.90126.72517-.96694,1.57174-1.32952,2.53867-1.08776.5521.1376.94665.53793,1.38359.98156.71112.72166,1.53422,1.55712,3.33174,1.55712,1.93432,0,3.14302-.96694,3.627-2.90183-.72529.9675-1.57174,1.33009-2.53879,1.08833-.55198-.13771-.94608-.53793-1.38359-.98156C9.87496.83546,9.05208,0,7.254,0Zm-3.627,4.35217c-1.93432,0-3.14302.96694-3.627,2.90183.72517-.9675,1.57162-1.33009,2.53867-1.08833.5521.13771.94665.53793,1.38359.98156.71112.72166,1.53422,1.55712,3.33174,1.55712,1.93432,0,3.14302-.96682,3.627-2.90126-.72529.96694-1.57174,1.32952-2.53879,1.08776-.55198-.1376-.94608-.53793-1.38359-.98156-.71066-.72166-1.53354-1.55712-3.33163-1.55712Z"/>
  </g>
</svg>