<?xml version="1.0" encoding="UTF-8"?>
<svg id="Layer_2" data-name="Layer 2" xmlns="http://www.w3.org/2000/svg" viewBox="0 0 14.50235 14.46652">
  <defs>
    <style>
      .cls-1 {
        fill: #0078d0;
      }

      .cls-2 {
        fill: #fff;
      }
    </style>
  </defs>
  <g id="Skills_Modal" data-name="Skills Modal">
    <g id="_5X37UO.tif" data-name="5X37UO.tif">
      <g>
        <path class="cls-1" d="m14.50235.00486v14.46159c-2.68209,0-5.36419.00019-8.04628-.00006-2.1505-.0002-4.301-.00092-6.4515-.00141-.00152-.03854-.00438-.07708-.00438-.11562C-.00001,9.61589,0,4.88243,0,.14896,0,.10239,0,.05582,0,0h.1892c4.71798,0,9.43596-.00002,14.15395.0002.05307,0,.10614.00304.15921.00466Zm-1.55318,7.64662c-.11353-.14356-.21437-.27361-.3179-.40148-.22516-.27808-.51478-.46549-.85939-.54722-.36695-.08703-.73932-.11177-1.12027-.06587-.54084.06517-.96799.30207-1.28742.74133-.25597.352-.29884.7487-.29045,1.17033.00992.49891.21403.90182.55934,1.23467.29158.28107.65488.45944,1.02271.62599.34856.15783.70109.31128,1.03355.49904.36379.20546.40262.76326.07734.99932-.4124.29928-1.03936.28506-1.41902.00719-.2267-.16592-.4161-.38271-.63842-.59182-.32715.18469-.68682.38773-1.05341.59468.299.57332.73853.95536,1.30923,1.18464.4286.17219.87658.21209,1.33863.18176.2974-.01952.581-.06687.85715-.17687.4688-.18674.85257-.46815,1.04137-.95324.12921-.33199.16047-.6755.11645-1.03548-.06316-.5166-.28105-.93897-.70939-1.22552-.32771-.21923-.68412-.39685-1.0336-.582-.30881-.16361-.64336-.28489-.93436-.47425-.34088-.22181-.35997-.77132.02782-.97896.27203-.14566.57049-.12467.82714.03394.16423.1015.28549.27241.4426.42871.3187-.211.65764-.4354,1.01033-.6689Zm-6.54282,5.5616v-5.35897h1.85925v-1.17195c-.02718-.00636-.03627-.01039-.04533-.01034-1.64613.00905-3.29226.01898-4.9384.02628-.10127.00045-.12058.0554-.119.13476.00102.05108.01185.10203.01207.15306.00124.28757.0006.57515.0006.87853h1.8931v5.34864h1.33772Z"/>
        <path class="cls-2" d="m12.94917,7.65148c-.35268.2335-.69163.4579-1.01033.6689-.15711-.1563-.27837-.32721-.4426-.42871-.25665-.15861-.55511-.1796-.82714-.03394-.38778.20764-.36869.75715-.02782.97896.291.18936.62555.31064.93436.47425.34947.18515.70589.36278,1.0336.582.42835.28655.64623.70892.70939,1.22552.04402.35998.01276.70348-.11645,1.03548-.1888.48509-.57257.7665-1.04137.95324-.27615.11-.55975.15735-.85715.17687-.46205.03033-.91002-.00957-1.33863-.18176-.5707-.22928-1.01023-.61132-1.30923-1.18464.36659-.20695.72626-.40999,1.05341-.59468.22232.20912.41172.42591.63842.59182.37966.27787,1.00662.29209,1.41902-.00719.32528-.23606.28645-.79386-.07734-.99932-.33246-.18776-.68499-.34121-1.03355-.49904-.36783-.16655-.73113-.34493-1.02271-.62599-.34531-.33285-.54941-.73576-.55934-1.23467-.00839-.42163.03448-.81833.29045-1.17033.31943-.43926.74658-.67617,1.28742-.74133.38095-.0459.75332-.02116,1.12027.06587.34461.08173.63423.26914.85939.54722.10354.12787.20438.25792.3179.40148Z"/>
        <path class="cls-2" d="m6.40635,13.21309h-1.33772v-5.34864h-1.8931c0-.30338.00064-.59096-.0006-.87853-.00022-.05103-.01105-.10198-.01207-.15306-.00158-.07936.01773-.13431.119-.13476,1.64614-.0073,3.29227-.01723,4.9384-.02628.00907-.00005.01816.00398.04533.01034v1.17195h-1.85925v5.35897Z"/>
      </g>
    </g>
  </g>
</svg>